<svg id="Layer_1" data-name="Layer 1" xmlns="http://www.w3.org/2000/svg" xmlns:xlink="http://www.w3.org/1999/xlink" viewBox="0 0 52 55"><defs><style>.cls-1{fill:#575757;}.cls-2{fill:url(#未命名的渐变_31);}.cls-3{fill:url(#未命名的渐变_30);}.cls-4{fill:url(#未命名的渐变_29);}.cls-5{fill:url(#未命名的渐变_28);}.cls-6{fill:url(#未命名的渐变_27);}.cls-7{fill:url(#未命名的渐变_26);}.cls-8{fill:url(#未命名的渐变_25);}.cls-9{fill:url(#未命名的渐变_24);}.cls-10{fill:url(#未命名的渐变_23);}.cls-11{fill:url(#未命名的渐变_22);}.cls-12{fill:url(#linear-gradient);}.cls-13{fill:url(#linear-gradient-2);}.cls-14{fill:url(#linear-gradient-3);}.cls-15{fill:url(#linear-gradient-4);}.cls-16{fill:url(#linear-gradient-5);}.cls-17{fill:url(#未命名的渐变_31-2);}.cls-18{fill:url(#未命名的渐变_30-2);}.cls-19{fill:url(#未命名的渐变_29-2);}.cls-20{fill:url(#未命名的渐变_28-2);}.cls-21{fill:url(#未命名的渐变_27-2);}.cls-22{fill:url(#未命名的渐变_26-2);}.cls-23{fill:url(#未命名的渐变_25-2);}.cls-24{fill:url(#未命名的渐变_24-2);}.cls-25{fill:url(#未命名的渐变_23-2);}.cls-26{fill:url(#未命名的渐变_22-2);}.cls-27{fill:url(#linear-gradient-6);}.cls-28{fill:url(#linear-gradient-7);}.cls-29{fill:url(#linear-gradient-8);}.cls-30{fill:url(#linear-gradient-9);}.cls-31{fill:url(#linear-gradient-10);}.cls-32{fill:#696969;}.cls-33{fill:url(#未命名的渐变_61);}.cls-34{fill:url(#未命名的渐变_60);}.cls-35{fill:url(#未命名的渐变_59);}.cls-36{fill:url(#未命名的渐变_58);}.cls-37{fill:url(#未命名的渐变_57);}.cls-38{fill:url(#未命名的渐变_56);}.cls-39{fill:url(#未命名的渐变_55);}.cls-40{fill:url(#未命名的渐变_54);}.cls-41{fill:url(#未命名的渐变_53);}.cls-42{fill:url(#未命名的渐变_52);}.cls-43{fill:url(#linear-gradient-11);}.cls-44{fill:url(#linear-gradient-12);}.cls-45{fill:url(#linear-gradient-13);}.cls-46{fill:url(#linear-gradient-14);}.cls-47{fill:url(#linear-gradient-15);}.cls-48{fill:url(#linear-gradient-16);}.cls-49{fill:url(#linear-gradient-17);}.cls-50{fill:url(#linear-gradient-18);}.cls-51{fill:url(#linear-gradient-19);}.cls-52{fill:url(#linear-gradient-20);}.cls-53{fill:url(#linear-gradient-21);}.cls-54{fill:url(#linear-gradient-22);}.cls-55{fill:url(#linear-gradient-23);}.cls-56{fill:url(#linear-gradient-24);}.cls-57{fill:url(#linear-gradient-25);}.cls-58{fill:url(#linear-gradient-26);}.cls-59{fill:url(#linear-gradient-27);}.cls-60{fill:url(#linear-gradient-28);}.cls-61{fill:url(#linear-gradient-29);}.cls-62{fill:url(#linear-gradient-30);}.cls-63{fill:url(#linear-gradient-31);}.cls-64{fill:url(#linear-gradient-32);}.cls-65{fill:url(#linear-gradient-33);}.cls-66{fill:url(#linear-gradient-34);}.cls-67{fill:url(#linear-gradient-35);}.cls-68{fill:url(#linear-gradient-36);}.cls-69{fill:url(#linear-gradient-37);}.cls-70{fill:url(#linear-gradient-38);}.cls-71{fill:url(#linear-gradient-39);}.cls-72{fill:none;stroke:#fff;stroke-miterlimit:10;stroke-width:2px;}.cls-73{fill:#898989;}</style><linearGradient id="未命名的渐变_31" x1="15.43" y1="48.07" x2="36.57" y2="48.07" gradientUnits="userSpaceOnUse"><stop offset="0" stop-color="#626262"/><stop offset="1" stop-color="#5a5a5a"/></linearGradient><linearGradient id="未命名的渐变_30" x1="15.77" y1="48.07" x2="36.23" y2="48.07" gradientUnits="userSpaceOnUse"><stop offset="0" stop-color="#6c6c6c"/><stop offset="1" stop-color="#5d5d5d"/></linearGradient><linearGradient id="未命名的渐变_29" x1="16.11" y1="48.07" x2="35.89" y2="48.07" gradientUnits="userSpaceOnUse"><stop offset="0" stop-color="#777"/><stop offset="1" stop-color="#606060"/></linearGradient><linearGradient id="未命名的渐变_28" x1="16.45" y1="48.07" x2="35.55" y2="48.07" gradientUnits="userSpaceOnUse"><stop offset="0" stop-color="#828282"/><stop offset="1" stop-color="#636363"/></linearGradient><linearGradient id="未命名的渐变_27" x1="16.8" y1="48.07" x2="35.2" y2="48.07" gradientUnits="userSpaceOnUse"><stop offset="0" stop-color="#8d8d8d"/><stop offset="1" stop-color="#666"/></linearGradient><linearGradient id="未命名的渐变_26" x1="17.14" y1="48.07" x2="34.86" y2="48.07" gradientUnits="userSpaceOnUse"><stop offset="0" stop-color="#989898"/><stop offset="1" stop-color="#696969"/></linearGradient><linearGradient id="未命名的渐变_25" x1="17.48" y1="48.07" x2="34.52" y2="48.07" gradientUnits="userSpaceOnUse"><stop offset="0" stop-color="#a3a3a3"/><stop offset="1" stop-color="#6c6c6c"/></linearGradient><linearGradient id="未命名的渐变_24" x1="17.82" y1="48.07" x2="34.18" y2="48.07" gradientUnits="userSpaceOnUse"><stop offset="0" stop-color="#aeaeae"/><stop offset="1" stop-color="#6f6f6f"/></linearGradient><linearGradient id="未命名的渐变_23" x1="18.17" y1="48.07" x2="33.83" y2="48.07" gradientUnits="userSpaceOnUse"><stop offset="0" stop-color="#b9b9b9"/><stop offset="1" stop-color="#727272"/></linearGradient><linearGradient id="未命名的渐变_22" x1="18.51" y1="48.07" x2="33.49" y2="48.07" gradientUnits="userSpaceOnUse"><stop offset="0" stop-color="#c4c4c4"/><stop offset="1" stop-color="#757575"/></linearGradient><linearGradient id="linear-gradient" x1="18.85" y1="48.07" x2="33.15" y2="48.07" gradientUnits="userSpaceOnUse"><stop offset="0" stop-color="#cfcfcf"/><stop offset="1" stop-color="#787878"/></linearGradient><linearGradient id="linear-gradient-2" x1="18.32" y1="51.73" x2="32.47" y2="46.45" gradientUnits="userSpaceOnUse"><stop offset="0" stop-color="#fff"/><stop offset="0.53" stop-color="#a6a6a6"/><stop offset="0.86" stop-color="#5e5e5e"/></linearGradient><linearGradient id="linear-gradient-3" x1="643.94" y1="786.92" x2="653.8" y2="786.92" gradientTransform="translate(809.07 -600.81) rotate(90)" gradientUnits="userSpaceOnUse"><stop offset="0.22" stop-color="#b8b8b8"/><stop offset="1" stop-color="#fff"/></linearGradient><linearGradient id="linear-gradient-4" x1="15.09" y1="52.57" x2="36.91" y2="52.57" gradientUnits="userSpaceOnUse"><stop offset="0" stop-color="#7d7d7d"/><stop offset="0.16" stop-color="#fff"/><stop offset="0.4" stop-color="#fff"/><stop offset="0.56" stop-color="#999"/><stop offset="0.8" stop-color="#707070"/><stop offset="0.87" stop-color="gray"/><stop offset="1" stop-color="gray"/></linearGradient><linearGradient id="linear-gradient-5" x1="15.09" y1="53.66" x2="36.91" y2="53.66" gradientUnits="userSpaceOnUse"><stop offset="0" stop-color="#636363"/><stop offset="0.16" stop-color="#d6d6d6"/><stop offset="0.28" stop-color="#fff"/><stop offset="0.4" stop-color="#d6d6d6"/><stop offset="0.56" stop-color="#8a8a8a"/><stop offset="0.8" stop-color="#525252"/><stop offset="0.87" stop-color="#666"/><stop offset="1" stop-color="#666"/></linearGradient><linearGradient id="未命名的渐变_31-2" x1="22.76" y1="39.13" x2="29.24" y2="39.13" xlink:href="#未命名的渐变_31"/><linearGradient id="未命名的渐变_30-2" x1="22.86" y1="39.13" x2="29.14" y2="39.13" xlink:href="#未命名的渐变_30"/><linearGradient id="未命名的渐变_29-2" x1="22.95" y1="39.13" x2="29.05" y2="39.13" xlink:href="#未命名的渐变_29"/><linearGradient id="未命名的渐变_28-2" x1="23.05" y1="39.13" x2="28.95" y2="39.13" xlink:href="#未命名的渐变_28"/><linearGradient id="未命名的渐变_27-2" x1="23.15" y1="39.13" x2="28.86" y2="39.13" xlink:href="#未命名的渐变_27"/><linearGradient id="未命名的渐变_26-2" x1="23.24" y1="39.13" x2="28.76" y2="39.13" xlink:href="#未命名的渐变_26"/><linearGradient id="未命名的渐变_25-2" x1="23.34" y1="39.13" x2="28.67" y2="39.13" xlink:href="#未命名的渐变_25"/><linearGradient id="未命名的渐变_24-2" x1="23.43" y1="39.13" x2="28.57" y2="39.13" xlink:href="#未命名的渐变_24"/><linearGradient id="未命名的渐变_23-2" x1="23.53" y1="39.13" x2="28.48" y2="39.13" xlink:href="#未命名的渐变_23"/><linearGradient id="未命名的渐变_22-2" x1="23.62" y1="39.13" x2="28.38" y2="39.13" xlink:href="#未命名的渐变_22"/><linearGradient id="linear-gradient-6" x1="23.72" y1="39.13" x2="28.29" y2="39.13" xlink:href="#linear-gradient"/><linearGradient id="linear-gradient-7" x1="23.63" y1="39.13" x2="28.38" y2="39.13" gradientUnits="userSpaceOnUse"><stop offset="0" stop-color="#fff"/><stop offset="0.48" stop-color="#a6a6a6"/><stop offset="0.9" stop-color="#5e5e5e"/></linearGradient><linearGradient id="linear-gradient-8" x1="688.25" y1="755.62" x2="694.88" y2="755.62" gradientTransform="translate(780.32 -652.45) rotate(90)" xlink:href="#linear-gradient-3"/><linearGradient id="linear-gradient-9" x1="22.03" y1="42.79" x2="29.97" y2="42.79" xlink:href="#linear-gradient-5"/><linearGradient id="linear-gradient-10" x1="22.29" y1="42.26" x2="29.71" y2="42.26" xlink:href="#linear-gradient-4"/><linearGradient id="未命名的渐变_61" x1="11.42" y1="19.11" x2="40.58" y2="19.11" gradientUnits="userSpaceOnUse"><stop offset="0" stop-color="#727272"/><stop offset="1" stop-color="#6b6b6b"/></linearGradient><linearGradient id="未命名的渐变_60" x1="11.76" y1="19.11" x2="40.24" y2="19.11" gradientUnits="userSpaceOnUse"><stop offset="0" stop-color="#7b7b7b"/><stop offset="1" stop-color="#6e6e6e"/></linearGradient><linearGradient id="未命名的渐变_59" x1="12.1" y1="19.11" x2="39.9" y2="19.11" gradientUnits="userSpaceOnUse"><stop offset="0" stop-color="#848484"/><stop offset="1" stop-color="#707070"/></linearGradient><linearGradient id="未命名的渐变_58" x1="12.44" y1="19.11" x2="39.56" y2="19.11" gradientUnits="userSpaceOnUse"><stop offset="0" stop-color="#8e8e8e"/><stop offset="1" stop-color="#737373"/></linearGradient><linearGradient id="未命名的渐变_57" x1="12.78" y1="19.11" x2="39.22" y2="19.11" gradientUnits="userSpaceOnUse"><stop offset="0" stop-color="#979797"/><stop offset="1" stop-color="#757575"/></linearGradient><linearGradient id="未命名的渐变_56" x1="13.12" y1="19.11" x2="38.88" y2="19.11" gradientUnits="userSpaceOnUse"><stop offset="0" stop-color="#a0a0a0"/><stop offset="1" stop-color="#787878"/></linearGradient><linearGradient id="未命名的渐变_55" x1="13.46" y1="19.11" x2="38.54" y2="19.11" gradientUnits="userSpaceOnUse"><stop offset="0" stop-color="#a9a9a9"/><stop offset="1" stop-color="#7a7a7a"/></linearGradient><linearGradient id="未命名的渐变_54" x1="13.79" y1="19.11" x2="38.21" y2="19.11" gradientUnits="userSpaceOnUse"><stop offset="0" stop-color="#b3b3b3"/><stop offset="1" stop-color="#7d7d7d"/></linearGradient><linearGradient id="未命名的渐变_53" x1="14.13" y1="19.11" x2="37.87" y2="19.11" gradientUnits="userSpaceOnUse"><stop offset="0" stop-color="#bcbcbc"/><stop offset="1" stop-color="gray"/></linearGradient><linearGradient id="未命名的渐变_52" x1="14.47" y1="19.11" x2="37.53" y2="19.11" gradientUnits="userSpaceOnUse"><stop offset="0" stop-color="#c5c5c5"/><stop offset="1" stop-color="#828282"/></linearGradient><linearGradient id="linear-gradient-11" x1="14.81" y1="19.11" x2="37.19" y2="19.11" gradientUnits="userSpaceOnUse"><stop offset="0" stop-color="#cfcfcf"/><stop offset="1" stop-color="#858585"/></linearGradient><linearGradient id="linear-gradient-12" x1="15.24" y1="19.11" x2="36.76" y2="19.11" gradientUnits="userSpaceOnUse"><stop offset="0" stop-color="#fff"/><stop offset="0.52" stop-color="#a6a6a6"/><stop offset="1" stop-color="#5e5e5e"/></linearGradient><linearGradient id="linear-gradient-13" x1="20.51" y1="3.23" x2="20.51" y2="35.1" gradientUnits="userSpaceOnUse"><stop offset="0" stop-color="#fff"/><stop offset="1" stop-color="#c2c2c2"/></linearGradient><linearGradient id="linear-gradient-14" x1="11.12" y1="3.23" x2="40.88" y2="3.23" gradientUnits="userSpaceOnUse"><stop offset="0" stop-color="#f2f2f2"/><stop offset="0.51" stop-color="#ccc"/><stop offset="1" stop-color="#666"/></linearGradient><linearGradient id="linear-gradient-15" x1="12.33" y1="3.11" x2="39.67" y2="3.11" gradientUnits="userSpaceOnUse"><stop offset="0.01" stop-color="#404040"/><stop offset="0.7" stop-color="#e6e6e6"/></linearGradient><linearGradient id="linear-gradient-16" x1="22.21" y1="35.1" x2="29.79" y2="35.1" xlink:href="#linear-gradient-5"/><linearGradient id="linear-gradient-17" x1="22.46" y1="34.55" x2="29.54" y2="34.55" xlink:href="#linear-gradient-4"/><linearGradient id="linear-gradient-18" x1="682" y1="601.27" x2="714.84" y2="601.27" gradientTransform="translate(610.23 -681.47) rotate(90)" gradientUnits="userSpaceOnUse"><stop offset="0" stop-color="#c4c4c4"/><stop offset="0.5" stop-color="#8c8c8c"/><stop offset="1" stop-color="gray"/></linearGradient><linearGradient id="linear-gradient-19" x1="7.15" y1="3.84" x2="9.99" y2="3.84" gradientUnits="userSpaceOnUse"><stop offset="0.14" stop-color="#636363"/><stop offset="0.5" stop-color="#f2f2f2"/><stop offset="0.86" stop-color="#5c5c5c"/></linearGradient><linearGradient id="linear-gradient-20" x1="213.3" y1="459.5" x2="240.25" y2="459.5" gradientTransform="translate(174.16 -465.38) rotate(45)" gradientUnits="userSpaceOnUse"><stop offset="0.3" stop-color="#575757"/><stop offset="0.5" stop-color="#f2f2f2"/><stop offset="0.7" stop-color="#636363"/><stop offset="1" stop-color="#242424"/></linearGradient><linearGradient id="linear-gradient-21" x1="14.29" y1="31.39" x2="16.26" y2="31.39" gradientUnits="userSpaceOnUse"><stop offset="0.14" stop-color="#3d3d3d"/><stop offset="0.5" stop-color="#c4c4c4"/><stop offset="0.86" stop-color="#3d3d3d"/></linearGradient><linearGradient id="linear-gradient-22" x1="-0.12" y1="4.89" x2="11.38" y2="3.58" gradientUnits="userSpaceOnUse"><stop offset="0" stop-color="#3d3d3d"/><stop offset="0.54" stop-color="#636363"/><stop offset="0.79" stop-color="#f2f2f2"/><stop offset="1" stop-color="#595959"/></linearGradient><linearGradient id="linear-gradient-23" x1="6.06" y1="3.86" x2="7.24" y2="3.86" gradientUnits="userSpaceOnUse"><stop offset="0.14" stop-color="#636363"/><stop offset="0.9" stop-color="#f2f2f2"/></linearGradient><linearGradient id="linear-gradient-24" x1="13.09" y1="30.97" x2="14.36" y2="30.97" gradientUnits="userSpaceOnUse"><stop offset="0.14" stop-color="#3d3d3d"/><stop offset="0.9" stop-color="#c4c4c4"/></linearGradient><linearGradient id="linear-gradient-25" x1="212.59" y1="460.12" x2="239.44" y2="460.12" gradientTransform="translate(175.14 -464.97) rotate(45)" gradientUnits="userSpaceOnUse"><stop offset="0.3" stop-color="#ababab"/><stop offset="0.5" stop-color="#fff"/><stop offset="0.7" stop-color="#ababab"/><stop offset="1" stop-color="#7a7a7a"/></linearGradient><linearGradient id="linear-gradient-26" x1="13.09" y1="31.76" x2="16.26" y2="31.76" gradientUnits="userSpaceOnUse"><stop offset="0.34" stop-color="#9c9c9c"/><stop offset="0.68" stop-color="#d9d9d9"/><stop offset="1" stop-color="#616161"/></linearGradient><linearGradient id="linear-gradient-27" x1="6.26" y1="4.92" x2="10.2" y2="3.72" gradientUnits="userSpaceOnUse"><stop offset="0.34" stop-color="#ccc"/><stop offset="0.67" stop-color="#fff"/><stop offset="1" stop-color="#ccc"/></linearGradient><linearGradient id="linear-gradient-28" x1="-0.3" y1="5.51" x2="11.39" y2="3.69" gradientUnits="userSpaceOnUse"><stop offset="0" stop-color="#c1c1c1"/><stop offset="0.54" stop-color="#d9d9d9"/><stop offset="0.79" stop-color="#fff"/><stop offset="1" stop-color="#d9d9d9"/></linearGradient><linearGradient id="linear-gradient-29" x1="682" y1="-822.44" x2="714.84" y2="-822.44" gradientTransform="matrix(0, 1, 1, 0, 865.47, -681.47)" xlink:href="#linear-gradient-18"/><linearGradient id="linear-gradient-30" x1="1430.85" y1="3.84" x2="1433.7" y2="3.84" gradientTransform="matrix(-1, 0, 0, 1, 1475.7, 0)" xlink:href="#linear-gradient-19"/><linearGradient id="linear-gradient-31" x1="1220.03" y1="-547.22" x2="1246.97" y2="-547.22" gradientTransform="matrix(-0.71, 0.71, 0.71, 0.71, 1301.54, -465.38)" xlink:href="#linear-gradient-20"/><linearGradient id="linear-gradient-32" x1="1437.99" y1="31.39" x2="1439.96" y2="31.39" gradientTransform="matrix(-1, 0, 0, 1, 1475.7, 0)" xlink:href="#linear-gradient-21"/><linearGradient id="linear-gradient-33" x1="1423.59" y1="4.89" x2="1435.08" y2="3.58" gradientTransform="matrix(-1, 0, 0, 1, 1475.7, 0)" xlink:href="#linear-gradient-22"/><linearGradient id="linear-gradient-34" x1="1429.76" y1="3.86" x2="1430.95" y2="3.86" gradientTransform="matrix(-1, 0, 0, 1, 1475.7, 0)" xlink:href="#linear-gradient-23"/><linearGradient id="linear-gradient-35" x1="1436.79" y1="30.97" x2="1438.06" y2="30.97" gradientTransform="matrix(-1, 0, 0, 1, 1475.7, 0)" xlink:href="#linear-gradient-24"/><linearGradient id="linear-gradient-36" x1="1219.31" y1="-546.6" x2="1246.16" y2="-546.6" gradientTransform="matrix(-0.71, 0.71, 0.71, 0.71, 1300.57, -464.97)" xlink:href="#linear-gradient-25"/><linearGradient id="linear-gradient-37" x1="1436.79" y1="31.76" x2="1439.96" y2="31.76" gradientTransform="matrix(-1, 0, 0, 1, 1475.7, 0)" xlink:href="#linear-gradient-26"/><linearGradient id="linear-gradient-38" x1="1429.97" y1="4.92" x2="1433.91" y2="3.72" gradientTransform="matrix(-1, 0, 0, 1, 1475.7, 0)" xlink:href="#linear-gradient-27"/><linearGradient id="linear-gradient-39" x1="1423.4" y1="5.51" x2="1435.09" y2="3.69" gradientTransform="matrix(-1, 0, 0, 1, 1475.7, 0)" xlink:href="#linear-gradient-28"/></defs><title>画板 6 副本</title><path class="cls-1" d="M22.69,43.13c.55,1,.15,2.93-1.14,4.77a11.67,11.67,0,0,1-6.46,4.43,18.68,18.68,0,0,0,2.37.34c1.71.17,4.44.34,8.55.34s6.84-.17,8.53-.34a18.68,18.68,0,0,0,2.37-.34,11.67,11.67,0,0,1-6.46-4.43c-1.29-1.84-1.69-3.73-1.14-4.77H22.69Z"/><path class="cls-2" d="M22.78,43.13c.53,1,.14,2.95-1.11,4.8a11.35,11.35,0,0,1-6.24,4.44s.7.16,2.3.32S22.06,53,26,53s6.59-.16,8.27-.32,2.25-.32,2.29-.32a11.35,11.35,0,0,1-6.24-4.44c-1.23-1.81-1.63-3.66-1.12-4.71,0,0-1-.06-1-.09h-5.4Z"/><path class="cls-3" d="M22.87,43.13c.52,1,.14,3-1.08,4.83a11,11,0,0,1-6,4.45c.09,0,.73.15,2.23.3,1.66.15,4.23.3,8,.3s6.34-.15,8-.3c1.49-.15,2.14-.29,2.22-.3a11,11,0,0,1-6-4.45c-1.18-1.78-1.57-3.6-1.11-4.66,0-.06-.92-.12-.9-.17H22.87Z"/><path class="cls-4" d="M23,43.13c.51,1.06.14,3-1,4.86a10.78,10.78,0,0,1-5.81,4.46c.13,0,.76.15,2.15.28,1.65.14,4.14.28,7.75.28s6.09-.14,7.73-.28c1.39-.13,2-.27,2.15-.28A10.78,10.78,0,0,1,30.08,48c-1.12-1.74-1.5-3.54-1.09-4.6,0-.1-.81-.19-.78-.26H23Z"/><path class="cls-5" d="M23.06,43.13c.49,1.07.13,3-1,4.89a10.53,10.53,0,0,1-5.59,4.48c.17,0,.79.13,2.08.25,1.63.13,4,.26,7.48.26s5.84-.13,7.46-.26c1.29-.12,1.91-.24,2.08-.25A10.53,10.53,0,0,1,30,48c-1.07-1.71-1.44-3.47-1.07-4.55,0-.13-.7-.24-.67-.34H23.06Z"/><path class="cls-6" d="M23.15,43.13c.47,1.07.13,3-1,4.92a10.36,10.36,0,0,1-5.37,4.49c.21,0,.81.12,2,.23,1.6.12,3.93.24,7.21.24s5.6-.12,7.2-.24c1.18-.11,1.78-.22,2-.23a10.36,10.36,0,0,1-5.37-4.49,6.22,6.22,0,0,1-1-4.49c0-.16-.59-.31-.55-.43H23.15Z"/><path class="cls-7" d="M23.24,43.13c.46,1.08.12,3-.95,4.95a10.09,10.09,0,0,1-5.15,4.5c.25,0,.84.11,1.93.2,1.58.12,3.83.23,6.94.23s5.35-.11,6.93-.22c1.08-.1,1.67-.19,1.92-.21a10.09,10.09,0,0,1-5.15-4.5,6.49,6.49,0,0,1-1-4.43c0-.2-.48-.37-.43-.52h-5Z"/><path class="cls-8" d="M23.33,43.13c.45,1.09.12,3.06-.92,5a9.92,9.92,0,0,1-4.93,4.51c.3,0,.87.1,1.85.18,1.57.11,3.74.21,6.68.21s5.1-.1,6.66-.21c1-.08,1.55-.16,1.85-.18a9.92,9.92,0,0,1-4.93-4.51,6.81,6.81,0,0,1-1-4.38c0-.23-.37-.43-.32-.6H23.33Z"/><path class="cls-9" d="M23.42,43.13c.43,1.09.12,3.08-.88,5a9.76,9.76,0,0,1-4.72,4.52c.34,0,.9.1,1.78.16,1.55.1,3.64.19,6.41.19s4.85-.09,6.4-.19c.87-.06,1.43-.13,1.77-.16a9.76,9.76,0,0,1-4.72-4.52,7.39,7.39,0,0,1-1-4.32c0-.26-.26-.49-.2-.69H23.42Z"/><path class="cls-10" d="M23.52,43.13c.41,1.1.11,3.1-.86,5a9.57,9.57,0,0,1-4.49,4.53c.38,0,.92.09,1.7.14,1.52.09,3.53.17,6.14.17s4.6-.07,6.13-.17c.77-.05,1.31-.11,1.69-.14a9.57,9.57,0,0,1-4.49-4.53,8,8,0,0,1-1-4.27c0-.29-.15-.55-.07-.77H23.52Z"/><path class="cls-11" d="M23.61,43.13c.4,1.11.11,3.12-.83,5.07a9.51,9.51,0,0,1-4.27,4.55l1.63.11c1.5.09,3.43.15,5.87.15s4.36-.06,5.86-.15l1.62-.11a9.51,9.51,0,0,1-4.27-4.55,8.57,8.57,0,0,1-1-4.21,2.94,2.94,0,0,1,0-.86H23.61Z"/><path class="cls-12" d="M22.91,48.24a9.45,9.45,0,0,1-4.06,4.55c1.69.12,4,.22,7.16.22s5.46-.1,7.14-.22a9.45,9.45,0,0,1-4.06-4.55,8,8,0,0,1-.79-5.11H23.7A8,8,0,0,1,22.91,48.24Z"/><path class="cls-13" d="M22.91,48.24a9.45,9.45,0,0,1-4.06,4.55c1.69.12,4,.22,7.16.22s5.46-.1,7.14-.22a9.45,9.45,0,0,1-4.06-4.55,8,8,0,0,1-.79-5.11H23.7A8,8,0,0,1,22.91,48.24Z"/><path class="cls-14" d="M18.71,52.78c1.32.1,3.06.18,5.29.21,1.48-2.59,1.91-7.6,1.37-9.86h-1.7C24.12,45.57,22.38,50.71,18.71,52.78Z"/><path class="cls-15" d="M26,52.67a68.42,68.42,0,0,1-10.25-.55c-.22.08-.44.15-.67.21a18.68,18.68,0,0,0,2.37.34c1.71.17,4.44.34,8.55.34s6.84-.17,8.53-.34a18.68,18.68,0,0,0,2.37-.34c-.23-.06-.45-.13-.67-.21A68.17,68.17,0,0,1,26,52.67Z"/><path class="cls-16" d="M15.09,54.24S17.78,55,26,55s10.9-.76,10.9-.76V52.33S34.23,53,26,53s-10.92-.68-10.92-.68Z"/><path class="cls-1" d="M26.05,42.45a10.51,10.51,0,0,1-2.67-.27,2.34,2.34,0,0,1-.71-.28,6.84,6.84,0,0,0,1.39-4.53,3.16,3.16,0,0,0-.55-1.57h5a3.16,3.16,0,0,0-.55,1.57,6.84,6.84,0,0,0,1.39,4.53,2,2,0,0,1-.66.28A10,10,0,0,1,26.05,42.45Z"/><path class="cls-17" d="M27.89,37.38a7.08,7.08,0,0,0,1.35,4.56,2.47,2.47,0,0,1-.65.25,10.05,10.05,0,0,1-2.54.26,10.77,10.77,0,0,1-2.6-.26,3.15,3.15,0,0,1-.69-.25,7.17,7.17,0,0,0,1.36-4.56,3.35,3.35,0,0,0-.54-1.58h4.84A3.29,3.29,0,0,0,27.89,37.38Z"/><path class="cls-18" d="M27.83,37.39A7.35,7.35,0,0,0,29.14,42a3.15,3.15,0,0,1-.62.24,10.47,10.47,0,0,1-2.47.24,11.06,11.06,0,0,1-2.52-.24,4.12,4.12,0,0,1-.67-.24,7.35,7.35,0,0,0,1.31-4.58,3.37,3.37,0,0,0-.52-1.59h4.7A3.37,3.37,0,0,0,27.83,37.39Z"/><path class="cls-19" d="M27.78,37.4A7.52,7.52,0,0,0,29.05,42a2.78,2.78,0,0,1-.61.22,10.06,10.06,0,0,1-2.39.23,10.82,10.82,0,0,1-2.45-.23A3.53,3.53,0,0,1,23,42a7.52,7.52,0,0,0,1.27-4.6,3.45,3.45,0,0,0-.5-1.6h4.56A3.45,3.45,0,0,0,27.78,37.4Z"/><path class="cls-20" d="M27.72,37.4A8,8,0,0,0,29,42a5.45,5.45,0,0,1-.58.2,10.62,10.62,0,0,1-2.32.21,11.17,11.17,0,0,1-2.37-.21,4.85,4.85,0,0,1-.63-.21,7.92,7.92,0,0,0,1.23-4.63,3.52,3.52,0,0,0-.49-1.6h4.42A3.52,3.52,0,0,0,27.72,37.4Z"/><path class="cls-21" d="M27.67,37.41a8.15,8.15,0,0,0,1.19,4.66,5,5,0,0,1-.57.18,10.19,10.19,0,0,1-2.24.2,10.91,10.91,0,0,1-2.3-.2,4.8,4.8,0,0,1-.6-.19,8.16,8.16,0,0,0,1.18-4.65,3.7,3.7,0,0,0-.47-1.61h4.28A3.7,3.7,0,0,0,27.67,37.41Z"/><path class="cls-22" d="M27.61,37.42a8.52,8.52,0,0,0,1.15,4.68c-.07,0-.23.09-.54.17a10.77,10.77,0,0,1-2.17.18,11.35,11.35,0,0,1-2.22-.18c-.34-.08-.51-.16-.59-.17a8.52,8.52,0,0,0,1.15-4.68,3.88,3.88,0,0,0-.46-1.62h4.14A3.88,3.88,0,0,0,27.61,37.42Z"/><path class="cls-23" d="M27.56,37.43a8.78,8.78,0,0,0,1.11,4.71c-.09,0-.24.08-.53.14a10.3,10.3,0,0,1-2.09.17,11.85,11.85,0,0,1-2.15-.17c-.3-.07-.47-.13-.56-.15a8.81,8.81,0,0,0,1.1-4.7A3.92,3.92,0,0,0,24,35.8h4A3.92,3.92,0,0,0,27.56,37.43Z"/><path class="cls-24" d="M27.5,37.44a9.21,9.21,0,0,0,1.07,4.73l-.51.13a11.74,11.74,0,0,1-2,.15A12.57,12.57,0,0,1,24,42.3c-.28-.06-.44-.12-.55-.14a9.18,9.18,0,0,0,1.07-4.72,4,4,0,0,0-.43-1.64h3.86A4,4,0,0,0,27.5,37.44Z"/><path class="cls-25" d="M27.45,37.45a9.48,9.48,0,0,0,1,4.75c-.11,0-.26.07-.49.11a11.55,11.55,0,0,1-1.94.14,12.28,12.28,0,0,1-2-.14l-.52-.12a9.51,9.51,0,0,0,1-4.74,4.16,4.16,0,0,0-.41-1.65h3.72A4.16,4.16,0,0,0,27.45,37.45Z"/><path class="cls-26" d="M27.39,37.46a10,10,0,0,0,1,4.77,4.56,4.56,0,0,1-.47.1,12.51,12.51,0,0,1-1.86.12,11.74,11.74,0,0,1-1.92-.13c-.21,0-.38-.07-.51-.1a9.94,9.94,0,0,0,1-4.76,4.54,4.54,0,0,0-.4-1.66h3.58A4.54,4.54,0,0,0,27.39,37.46Z"/><path class="cls-27" d="M23.72,42.26a12.35,12.35,0,0,0,2.33.19,11.75,11.75,0,0,0,2.24-.18,10.35,10.35,0,0,1-.95-4.8,4.6,4.6,0,0,1,.38-1.67H24.28a4.6,4.6,0,0,1,.38,1.67A10.41,10.41,0,0,1,23.72,42.26Z"/><path class="cls-28" d="M23.63,42.24a11.89,11.89,0,0,0,2.42.21,11.17,11.17,0,0,0,2.33-.2c-1.47-3.51-.94-5.73-.68-6.45H24.3C24.56,36.52,25.09,38.73,23.63,42.24Z"/><path class="cls-29" d="M23.57,42.23a10.09,10.09,0,0,0,1.53.2,18,18,0,0,0,.65-6.63h-1.5C24.51,36.48,25.11,38.69,23.57,42.23Z"/><path class="cls-30" d="M26,43.69c2.42,0,4-.27,4-1a.77.77,0,0,0-.64-.77,10.42,10.42,0,0,1-3.33.36,10.42,10.42,0,0,1-3.33-.36.77.77,0,0,0-.64.77C22,43.42,23.58,43.69,26,43.69Z"/><path class="cls-31" d="M26,42.63c1.83,0,3.16-.15,3.71-.55a.81.81,0,0,0-.38-.18,10.42,10.42,0,0,1-3.33.36,10.42,10.42,0,0,1-3.33-.36.81.81,0,0,0-.38.18C22.83,42.48,24.17,42.63,26,42.63Z"/><path class="cls-32" d="M40.88,3.23H11.12a39.13,39.13,0,0,0,.08,4.91A68.85,68.85,0,0,0,13.31,20.8a24.29,24.29,0,0,0,5.43,10.12C21.08,33.46,23.72,35,26,35s4.92-1.54,7.26-4.08A24.29,24.29,0,0,0,38.69,20.8,68.85,68.85,0,0,0,40.8,8.14,39.13,39.13,0,0,0,40.88,3.23Z"/><path class="cls-33" d="M40.46,8.14a39.13,39.13,0,0,0,.08-4.91H11.46a39.13,39.13,0,0,0,.08,4.91A69.76,69.76,0,0,0,13.6,20.8a24.47,24.47,0,0,0,5.3,10.12C21.19,33.46,23.77,35,26,35s4.81-1.54,7.1-4.08A24.47,24.47,0,0,0,38.4,20.8,69.76,69.76,0,0,0,40.46,8.14Z"/><path class="cls-34" d="M40.12,8.14a39.13,39.13,0,0,0,.08-4.91H11.8a41.74,41.74,0,0,0,.08,4.91,71.63,71.63,0,0,0,2,12.66,24.68,24.68,0,0,0,5.18,10.12C21.3,33.46,23.82,35,26,35s4.7-1.54,6.93-4.08A24.68,24.68,0,0,0,38.11,20.8,71.63,71.63,0,0,0,40.12,8.14Z"/><path class="cls-35" d="M39.79,8.14a42.8,42.8,0,0,0,.07-4.91H12.14a42.8,42.8,0,0,0,.07,4.91,73.79,73.79,0,0,0,2,12.66,24.78,24.78,0,0,0,5.05,10.12C21.41,33.46,23.87,35,26,35s4.59-1.54,6.77-4.08a24.9,24.9,0,0,0,5-10.12A73.79,73.79,0,0,0,39.79,8.14Z"/><path class="cls-36" d="M39.45,8.14a44.73,44.73,0,0,0,.08-4.91H12.47a44.73,44.73,0,0,0,.08,4.91A74.86,74.86,0,0,0,14.47,20.8,25,25,0,0,0,19.4,30.92C21.52,33.46,23.93,35,26,35s4.48-1.54,6.6-4.08A25,25,0,0,0,37.53,20.8,74.86,74.86,0,0,0,39.45,8.14Z"/><path class="cls-37" d="M39.12,8.14a45.94,45.94,0,0,0,.07-4.91H12.81a45.94,45.94,0,0,0,.07,4.91A78.15,78.15,0,0,0,14.75,20.8a25.44,25.44,0,0,0,4.81,10.12C21.63,33.46,24,35,26,35s4.36-1.54,6.44-4.08A25.44,25.44,0,0,0,37.25,20.8,78.15,78.15,0,0,0,39.12,8.14Z"/><path class="cls-38" d="M38.78,8.14a45.94,45.94,0,0,0,.07-4.91H13.15a45.94,45.94,0,0,0,.07,4.91A78.23,78.23,0,0,0,15,20.8a25.6,25.6,0,0,0,4.69,10.12C21.75,33.46,24,35,26,35s4.25-1.54,6.27-4.08A25.6,25.6,0,0,0,37,20.8,78.23,78.23,0,0,0,38.78,8.14Z"/><path class="cls-39" d="M38.44,8.14a45.94,45.94,0,0,0,.07-4.91h-25a45.94,45.94,0,0,0,.07,4.91A79.46,79.46,0,0,0,15.33,20.8a26.07,26.07,0,0,0,4.56,10.12C21.86,33.46,24.08,35,26,35s4.14-1.54,6.11-4.08A26.07,26.07,0,0,0,36.67,20.8,79.46,79.46,0,0,0,38.44,8.14Z"/><path class="cls-40" d="M38.11,8.14a47.22,47.22,0,0,0,.06-4.91H13.83a47.22,47.22,0,0,0,.06,4.91A82.19,82.19,0,0,0,15.62,20.8a26.28,26.28,0,0,0,4.44,10.12C22,33.46,24.13,35,26,35s4-1.54,5.94-4.08A26.28,26.28,0,0,0,36.38,20.8,82.19,82.19,0,0,0,38.11,8.14Z"/><path class="cls-41" d="M37.77,8.14c.17-3.1.07-4.91.07-4.91H14.16s-.1,1.81.07,4.91A84.88,84.88,0,0,0,15.91,20.8a26.67,26.67,0,0,0,4.31,10.12C22.08,33.46,24.19,35,26,35s3.92-1.54,5.78-4.08A26.67,26.67,0,0,0,36.09,20.8,84.88,84.88,0,0,0,37.77,8.14Z"/><path class="cls-42" d="M37.43,8.14c.17-3.1.07-4.91.07-4.91h-23s-.1,1.81.07,4.91A86.36,86.36,0,0,0,16.2,20.8a26.93,26.93,0,0,0,4.19,10.12C22.19,33.46,24.24,35,26,35s3.8-1.54,5.61-4.08A26.93,26.93,0,0,0,35.8,20.8,86.36,86.36,0,0,0,37.43,8.14Z"/><path class="cls-43" d="M37.16,3.23H14.84s-.1,1.81.06,4.91A90.86,90.86,0,0,0,16.48,20.8a27.73,27.73,0,0,0,4.07,10.12C22.31,33.46,24.29,35,26,35s3.69-1.54,5.45-4.08A27.73,27.73,0,0,0,35.52,20.8,90.86,90.86,0,0,0,37.1,8.14C37.26,5,37.16,3.23,37.16,3.23Z"/><path class="cls-44" d="M36.73,3.23H15.27s-.1,1.81.06,4.91A92.3,92.3,0,0,0,16.85,20.8a28.05,28.05,0,0,0,3.91,10.12C22.45,33.46,24.35,35,26,35s3.55-1.54,5.24-4.08A28.24,28.24,0,0,0,35.15,20.8,92.3,92.3,0,0,0,36.67,8.14C36.83,5,36.73,3.23,36.73,3.23Z"/><path class="cls-45" d="M21.77,20.8C20.87,10.48,21,3.23,21,3.23H15A80.81,80.81,0,0,0,16.66,20.8C18.21,28.86,22.64,35,26,35h0C24.48,35,22.47,28.86,21.77,20.8Z"/><path class="cls-46" d="M40.88,3.23c0,.45-6.66.82-14.88.82s-14.88-.37-14.88-.82S17.78,2.4,26,2.4,40.88,2.77,40.88,3.23Z"/><path class="cls-47" d="M12.33,3.15c2,.25,6.76.42,13.67.42s11.7-.17,13.67-.42A134.43,134.43,0,0,0,26,2.65,134.43,134.43,0,0,0,12.33,3.15Z"/><path class="cls-48" d="M26,36.05c2.3,0,3.79-.38,3.79-1.13a.76.76,0,0,0-.62-.77,9.79,9.79,0,0,1-3.17.47,9.79,9.79,0,0,1-3.17-.47.76.76,0,0,0-.62.77C22.21,35.67,23.7,36.05,26,36.05Z"/><path class="cls-49" d="M29.18,34.15a9.83,9.83,0,0,1-3.17.47,9.89,9.89,0,0,1-3.18-.47.76.76,0,0,0-.37.19A6.85,6.85,0,0,0,26,35a6.84,6.84,0,0,0,3.55-.62A.79.79,0,0,0,29.18,34.15Z"/><path class="cls-50" d="M8.44.53A8.36,8.36,0,0,0,1.57,4.6C.33,6.7-.54,10.35,2.33,15.79c2.07,3.91,5.48,6.57,8.48,8.92s5.32,4.16,5.45,6.38a1,1,0,0,1-.24.69,1,1,0,0,1-.66.32,1,1,0,0,1-.69-.24.94.94,0,0,1-.31-.66l-1.27.07a2.16,2.16,0,0,0,.74,1.53,2.2,2.2,0,0,0,1.6.57A2.24,2.24,0,0,0,17,32.63,2.21,2.21,0,0,0,17.53,31c-.16-2.8-2.84-4.89-5.94-7.31-2.9-2.27-6.19-4.84-8.13-8.51-2.61-4.93-1.87-8.14-.8-10A7.06,7.06,0,0,1,8.47,1.8,1.47,1.47,0,0,1,10,3.21,1.47,1.47,0,0,1,8.52,4.69a1.44,1.44,0,0,1-1.28-.81l-1.18.45A2.67,2.67,0,0,0,8.55,6a2.74,2.74,0,0,0,2.71-2.77A2.74,2.74,0,0,0,8.44.53Z"/><path class="cls-51" d="M7.24,3.88a1.44,1.44,0,0,0,1.28.81A1.47,1.47,0,0,0,10,3.21,1.79,1.79,0,0,0,10,3,1.5,1.5,0,0,1,8.52,4.16a1.53,1.53,0,0,1-1.37-.77Z"/><path class="cls-52" d="M17.53,30.49c-.16-2.8-2.84-4.89-5.94-7.31-2.9-2.27-6.19-4.84-8.13-8.51A13.57,13.57,0,0,1,1.68,8.76,13,13,0,0,0,3.46,15.2c1.94,3.67,5.23,6.24,8.13,8.51,3.1,2.42,5.78,4.51,5.94,7.31,0-.05,0-.1,0-.15A2.36,2.36,0,0,0,17.53,30.49Z"/><path class="cls-53" d="M14.36,31.2a.94.94,0,0,0,.31.66,1,1,0,0,0,.69.24,1,1,0,0,0,.66-.32,1,1,0,0,0,.24-.69l0-.25a1.07,1.07,0,0,1-.21.41,1,1,0,0,1-.66.32,1,1,0,0,1-.69-.24,1.17,1.17,0,0,1-.38-.66Z"/><path class="cls-54" d="M8.44.53a2.74,2.74,0,0,1,2.82,2.66,1.48,1.48,0,0,0,0-.21,1.71,1.71,0,0,0,0-.32A2.74,2.74,0,0,0,8.44,0,8.36,8.36,0,0,0,1.57,4.07,8.57,8.57,0,0,0,.41,8.77,8.46,8.46,0,0,1,1.57,4.6,8.33,8.33,0,0,1,8.44.53Z"/><polygon class="cls-55" points="7.15 3.39 6.06 3.8 6.06 4.33 7.24 3.88 7.15 3.39"/><polygon class="cls-56" points="14.29 30.67 13.1 30.75 13.09 31.27 14.36 31.2 14.29 30.67"/><path class="cls-57" d="M17.53,31c-.16-2.8-2.84-4.89-5.94-7.31-2.9-2.27-6.19-4.84-8.13-8.51A13.47,13.47,0,0,1,1.68,9.14a13.24,13.24,0,0,0,1.78,6.28c1.94,3.67,5.23,6.24,8.13,8.51,3.1,2.42,5.78,4.51,5.94,7.32h0Z"/><path class="cls-58" d="M16,31.78a1,1,0,0,1-.66.32,1,1,0,0,1-.69-.24.94.94,0,0,1-.31-.66l-1.27.07a1.64,1.64,0,0,0,0,.22l1.25-.07a.92.92,0,0,0,.31.66,1,1,0,0,0,.69.24,1,1,0,0,0,.9-1s0-.05,0-.08A1,1,0,0,1,16,31.78Z"/><path class="cls-59" d="M8.52,4.69a1.44,1.44,0,0,1-1.28-.81l-1.18.45a1.54,1.54,0,0,0,.08.19l1.1-.42a1.42,1.42,0,0,0,1.28.81A1.47,1.47,0,0,0,10,3.44V3.36A1.49,1.49,0,0,1,8.52,4.69Z"/><path class="cls-60" d="M8.44.75a2.75,2.75,0,0,1,2.82,2.59.75.75,0,0,0,0-.15A2.74,2.74,0,0,0,8.44.53,8.36,8.36,0,0,0,1.57,4.6,8.49,8.49,0,0,0,.41,9.09a8.31,8.31,0,0,1,8-8.34Z"/><path class="cls-61" d="M43.56.53A8.36,8.36,0,0,1,50.43,4.6c1.24,2.1,2.11,5.75-.76,11.19-2.07,3.91-5.48,6.57-8.48,8.92s-5.32,4.16-5.45,6.38a1,1,0,0,0,.24.69,1,1,0,0,0,.66.32,1,1,0,0,0,.69-.24.94.94,0,0,0,.31-.66l1.27.07a2.16,2.16,0,0,1-.74,1.53,2.2,2.2,0,0,1-1.6.57A2.24,2.24,0,0,1,35,32.63,2.21,2.21,0,0,1,34.47,31c.16-2.8,2.84-4.89,5.94-7.31,2.9-2.27,6.19-4.84,8.13-8.51,2.61-4.93,1.87-8.14.8-10A7.06,7.06,0,0,0,43.53,1.8,1.47,1.47,0,0,0,42,3.21a1.47,1.47,0,0,0,1.47,1.48,1.44,1.44,0,0,0,1.28-.81l1.18.45A2.67,2.67,0,0,1,43.45,6a2.74,2.74,0,0,1-2.71-2.77A2.74,2.74,0,0,1,43.56.53Z"/><path class="cls-62" d="M44.76,3.88a1.44,1.44,0,0,1-1.28.81A1.47,1.47,0,0,1,42,3.21,1.79,1.79,0,0,1,42,3a1.5,1.5,0,0,0,1.45,1.18,1.53,1.53,0,0,0,1.37-.77Z"/><path class="cls-63" d="M34.47,30.49c.16-2.8,2.84-4.89,5.94-7.31,2.9-2.27,6.19-4.84,8.13-8.51a13.4,13.4,0,0,0,1.77-5.91,12.87,12.87,0,0,1-1.77,6.44c-1.94,3.67-5.23,6.24-8.13,8.51-3.1,2.42-5.78,4.51-5.94,7.31,0-.05,0-.1,0-.15A2.36,2.36,0,0,1,34.47,30.49Z"/><path class="cls-64" d="M37.64,31.2a.94.94,0,0,1-.31.66,1,1,0,0,1-.69.24,1,1,0,0,1-.66-.32,1,1,0,0,1-.24-.69l0-.25a1.07,1.07,0,0,0,.21.41,1,1,0,0,0,.66.32,1,1,0,0,0,.69-.24,1.17,1.17,0,0,0,.38-.66Z"/><path class="cls-65" d="M43.56.53a2.74,2.74,0,0,0-2.82,2.66,1.48,1.48,0,0,1,0-.21,1.71,1.71,0,0,1,0-.32A2.74,2.74,0,0,1,43.56,0a8.36,8.36,0,0,1,6.87,4.07,8.57,8.57,0,0,1,1.16,4.7A8.46,8.46,0,0,0,50.43,4.6,8.33,8.33,0,0,0,43.56.53Z"/><polygon class="cls-66" points="44.85 3.39 45.94 3.8 45.94 4.33 44.76 3.88 44.85 3.39"/><polygon class="cls-67" points="37.71 30.67 38.9 30.75 38.91 31.27 37.64 31.2 37.71 30.67"/><path class="cls-68" d="M34.47,31c.16-2.8,2.84-4.89,5.94-7.31,2.9-2.27,6.19-4.84,8.13-8.51a13.47,13.47,0,0,0,1.78-6.06,13.24,13.24,0,0,1-1.78,6.28c-1.94,3.67-5.23,6.24-8.13,8.51-3.1,2.42-5.78,4.51-5.94,7.32h0Z"/><path class="cls-69" d="M36,31.78a1,1,0,0,0,.66.32,1,1,0,0,0,.69-.24.94.94,0,0,0,.31-.66l1.27.07a1.64,1.64,0,0,1,0,.22l-1.25-.07a.92.92,0,0,1-.31.66,1,1,0,0,1-.69.24,1,1,0,0,1-.9-1s0-.05,0-.08A1,1,0,0,0,36,31.78Z"/><path class="cls-70" d="M43.48,4.69a1.44,1.44,0,0,0,1.28-.81l1.18.45a1.54,1.54,0,0,1-.08.19l-1.1-.42a1.42,1.42,0,0,1-1.28.81A1.47,1.47,0,0,1,42,3.44V3.36A1.49,1.49,0,0,0,43.48,4.69Z"/><path class="cls-71" d="M43.56.75a2.75,2.75,0,0,0-2.82,2.59.75.75,0,0,1,0-.15A2.74,2.74,0,0,1,43.56.53,8.36,8.36,0,0,1,50.43,4.6a8.49,8.49,0,0,1,1.16,4.49,8.31,8.31,0,0,0-8-8.34Z"/><path class="cls-72" d="M31.5,27.78H20.21V26.1l5.71-6.81A17.27,17.27,0,0,0,28,16.35a4.92,4.92,0,0,0,.54-2.2,3,3,0,0,0-.74-2.07,2.64,2.64,0,0,0-2-.8,3.09,3.09,0,0,0-2.46,1,3.67,3.67,0,0,0-.84,2.46H20.09l0-.07a4.94,4.94,0,0,1,1.49-3.77,5.72,5.72,0,0,1,4.21-1.54,5.28,5.28,0,0,1,3.83,1.35A4.63,4.63,0,0,1,31,14.17,5.62,5.62,0,0,1,30.2,17a31.36,31.36,0,0,1-2.42,3.45L23.2,25.8l0,.06H31.5Z"/><path class="cls-73" d="M31.5,27.78H20.21V26.1l5.71-6.81A17.27,17.27,0,0,0,28,16.35a4.92,4.92,0,0,0,.54-2.2,3,3,0,0,0-.74-2.07,2.64,2.64,0,0,0-2-.8,3.09,3.09,0,0,0-2.46,1,3.67,3.67,0,0,0-.84,2.46H20.09l0-.07a4.94,4.94,0,0,1,1.49-3.77,5.72,5.72,0,0,1,4.21-1.54,5.28,5.28,0,0,1,3.83,1.35A4.63,4.63,0,0,1,31,14.17,5.62,5.62,0,0,1,30.2,17a31.36,31.36,0,0,1-2.42,3.45L23.2,25.8l0,.06H31.5Z"/></svg>