<svg id="Layer_1" data-name="Layer 1" xmlns="http://www.w3.org/2000/svg" xmlns:xlink="http://www.w3.org/1999/xlink" viewBox="0 0 33 38"><defs><style>.cls-1{fill:url(#linear-gradient);}.cls-2{fill:url(#linear-gradient-2);}.cls-3{fill:url(#linear-gradient-3);}.cls-4{fill:#949494;}.cls-5{fill:url(#linear-gradient-4);}.cls-6{fill:#ff8000;}.cls-7{fill:url(#linear-gradient-5);}.cls-8{fill:url(#linear-gradient-6);}.cls-9{fill:url(#linear-gradient-7);}.cls-10{fill:url(#linear-gradient-8);}.cls-11{fill:url(#linear-gradient-9);}.cls-12{fill:url(#linear-gradient-10);}.cls-13{fill:#ff9500;}.cls-14{fill:#d64700;}.cls-15{fill:url(#linear-gradient-11);}.cls-16{fill:url(#linear-gradient-12);}.cls-17{fill:url(#linear-gradient-13);}.cls-18{fill:url(#linear-gradient-14);}.cls-19{fill:url(#linear-gradient-15);}.cls-20{fill:url(#linear-gradient-16);}.cls-21{fill:url(#linear-gradient-17);}.cls-22{fill:url(#linear-gradient-18);}.cls-23{fill:url(#linear-gradient-19);}.cls-24{fill:url(#linear-gradient-20);}.cls-25{fill:url(#linear-gradient-21);}.cls-26{fill:url(#linear-gradient-22);}.cls-27{fill:url(#linear-gradient-23);}.cls-28{fill:url(#linear-gradient-24);}.cls-29{fill:url(#linear-gradient-25);}.cls-30{fill:url(#linear-gradient-26);}.cls-31{fill:url(#linear-gradient-27);}.cls-32{fill:url(#linear-gradient-28);}.cls-33{fill:url(#linear-gradient-29);}.cls-34{fill:url(#linear-gradient-30);}</style><linearGradient id="linear-gradient" x1="23.1" y1="17.88" x2="17.8" y2="37.67" gradientUnits="userSpaceOnUse"><stop offset="0.45" stop-color="#a81400"/><stop offset="0.6" stop-color="#f03300"/><stop offset="0.75" stop-color="#a81400"/></linearGradient><linearGradient id="linear-gradient-2" x1="-52.01" y1="91.03" x2="-32.99" y2="91.03" gradientTransform="matrix(0.26, 0.97, 0.97, -0.26, -56.42, 92.3)" gradientUnits="userSpaceOnUse"><stop offset="0.26" stop-color="#520000"/><stop offset="0.45" stop-color="#f03300"/><stop offset="0.6" stop-color="#ff7500"/><stop offset="0.75" stop-color="#f30"/><stop offset="1" stop-color="#ff1c00"/></linearGradient><linearGradient id="linear-gradient-3" x1="-52.01" y1="91.03" x2="-33.36" y2="91.03" gradientTransform="matrix(0.26, 0.97, 0.97, -0.26, -56.42, 92.3)" gradientUnits="userSpaceOnUse"><stop offset="0.26" stop-color="#c40000"/><stop offset="0.45" stop-color="#ff9400"/><stop offset="0.6" stop-color="#ff0"/><stop offset="0.75" stop-color="#ff9400"/><stop offset="1" stop-color="#ff7d00"/></linearGradient><linearGradient id="linear-gradient-4" x1="511.34" y1="19.47" x2="506.51" y2="37.84" gradientTransform="matrix(-1, 0, 0, 1, 525.65, 0)" gradientUnits="userSpaceOnUse"><stop offset="0.26" stop-color="#b31f00"/><stop offset="0.45" stop-color="#ff8000"/><stop offset="0.6" stop-color="#ffc400"/><stop offset="0.75" stop-color="#ff8000"/><stop offset="1" stop-color="#ff6100"/></linearGradient><linearGradient id="linear-gradient-5" x1="15" y1="18.59" x2="10.07" y2="36.96" xlink:href="#linear-gradient"/><linearGradient id="linear-gradient-6" x1="75.5" y1="566.91" x2="94.52" y2="566.91" gradientTransform="translate(582.07 92.3) rotate(105)" xlink:href="#linear-gradient-2"/><linearGradient id="linear-gradient-7" x1="75.5" y1="566.91" x2="94.14" y2="566.91" gradientTransform="translate(582.07 92.3) rotate(105)" xlink:href="#linear-gradient-3"/><linearGradient id="linear-gradient-8" x1="18.68" y1="19.47" x2="13.86" y2="37.84" gradientTransform="matrix(1, 0, 0, 1, 0, 0)" xlink:href="#linear-gradient-4"/><linearGradient id="linear-gradient-9" x1="-9.07" y1="242.42" x2="16.34" y2="242.42" gradientTransform="translate(185.34 -160.68) rotate(45)" gradientUnits="userSpaceOnUse"><stop offset="0" stop-color="#ffffdb"/><stop offset="1" stop-color="#ff9600"/></linearGradient><linearGradient id="linear-gradient-10" x1="-8.78" y1="242.42" x2="16.06" y2="242.42" gradientTransform="translate(185.34 -160.68) rotate(45)" gradientUnits="userSpaceOnUse"><stop offset="0" stop-color="#ffffe0"/><stop offset="0.25" stop-color="#ffd671"/><stop offset="0.5" stop-color="#ff9c00"/><stop offset="0.77" stop-color="#ffb000"/><stop offset="1" stop-color="#ff7500"/></linearGradient><linearGradient id="linear-gradient-11" x1="5.81" y1="13.61" x2="8.73" y2="20.64" gradientUnits="userSpaceOnUse"><stop offset="0" stop-color="#ffc400"/><stop offset="0.47" stop-color="#ff8f00"/><stop offset="1" stop-color="#cc3800"/></linearGradient><linearGradient id="linear-gradient-12" x1="-3.7" y1="234.64" x2="3.33" y2="231.73" gradientTransform="translate(185.34 -160.68) rotate(45)" xlink:href="#linear-gradient-11"/><linearGradient id="linear-gradient-13" x1="10.88" y1="234.66" x2="3.96" y2="231.72" gradientTransform="translate(185.34 -160.68) rotate(45)" gradientUnits="userSpaceOnUse"><stop offset="0" stop-color="#ff8c00"/><stop offset="0.47" stop-color="#e86100"/><stop offset="1" stop-color="#cc3800"/></linearGradient><linearGradient id="linear-gradient-14" x1="11.36" y1="234.95" x2="14.32" y2="242.11" gradientTransform="translate(185.34 -160.68) rotate(45)" gradientUnits="userSpaceOnUse"><stop offset="0" stop-color="#ff8c00"/><stop offset="0.47" stop-color="#e35900"/><stop offset="1" stop-color="#bf2900"/></linearGradient><linearGradient id="linear-gradient-15" x1="-4.14" y1="235.08" x2="-7.05" y2="242.11" gradientTransform="translate(185.34 -160.68) rotate(45)" gradientUnits="userSpaceOnUse"><stop offset="0" stop-color="#ffc400"/><stop offset="0.47" stop-color="#ff9e00"/><stop offset="1" stop-color="#ffd900"/></linearGradient><linearGradient id="linear-gradient-16" x1="-4.14" y1="249.75" x2="-7.05" y2="242.72" xlink:href="#linear-gradient-15"/><linearGradient id="linear-gradient-17" x1="11.41" y1="249.75" x2="14.32" y2="242.72" xlink:href="#linear-gradient-14"/><linearGradient id="linear-gradient-18" x1="10.98" y1="250.19" x2="3.94" y2="253.1" xlink:href="#linear-gradient-13"/><linearGradient id="linear-gradient-19" x1="-6.49" y1="242.42" x2="13.76" y2="242.42" gradientTransform="translate(185.34 -160.68) rotate(45)" gradientUnits="userSpaceOnUse"><stop offset="0.1" stop-color="#ffffdb"/><stop offset="0.5" stop-color="#ffbd00"/><stop offset="0.78" stop-color="#ffaf00"/><stop offset="1" stop-color="#ffa100"/></linearGradient><linearGradient id="linear-gradient-20" x1="-6.26" y1="242.42" x2="13.54" y2="242.42" gradientTransform="translate(185.34 -160.68) rotate(45)" gradientUnits="userSpaceOnUse"><stop offset="0" stop-color="#ffffe0"/><stop offset="0.25" stop-color="#ffd671"/><stop offset="0.5" stop-color="#ff9c00"/><stop offset="0.77" stop-color="#ffb000"/><stop offset="1" stop-color="#ff8700"/></linearGradient><linearGradient id="linear-gradient-21" x1="6.75" y1="10.11" x2="14.23" y2="22.87" gradientUnits="userSpaceOnUse"><stop offset="0" stop-color="#f90"/><stop offset="1" stop-color="#de4d00"/></linearGradient><linearGradient id="linear-gradient-22" x1="6.78" y1="10.1" x2="14.23" y2="22.8" gradientUnits="userSpaceOnUse"><stop offset="0" stop-color="#fff"/><stop offset="1" stop-color="#ffc700"/></linearGradient><linearGradient id="linear-gradient-23" x1="6.85" y1="10.18" x2="14.37" y2="23" gradientUnits="userSpaceOnUse"><stop offset="0.15" stop-color="#ffffd4"/><stop offset="0.88" stop-color="#ffb300"/></linearGradient><linearGradient id="linear-gradient-24" x1="26.26" y1="10.12" x2="18.8" y2="22.82" gradientUnits="userSpaceOnUse"><stop offset="0" stop-color="#ff8700"/><stop offset="1" stop-color="#de4d00"/></linearGradient><linearGradient id="linear-gradient-25" x1="484.89" y1="10.1" x2="492.34" y2="22.8" gradientTransform="matrix(-1, 0, 0, 1, 511.11, 0)" gradientUnits="userSpaceOnUse"><stop offset="0" stop-color="#ffd100"/><stop offset="1" stop-color="#ffc700"/></linearGradient><linearGradient id="linear-gradient-26" x1="484.96" y1="10.18" x2="492.48" y2="23" gradientTransform="matrix(-1, 0, 0, 1, 511.11, 0)" gradientUnits="userSpaceOnUse"><stop offset="0.15" stop-color="#ffba00"/><stop offset="0.88" stop-color="#ffb300"/></linearGradient><linearGradient id="linear-gradient-27" x1="13.45" y1="5.38" x2="18.91" y2="16.85" gradientUnits="userSpaceOnUse"><stop offset="0" stop-color="#fff"/><stop offset="0.45" stop-color="#fff091"/><stop offset="1" stop-color="#ffb300"/></linearGradient><linearGradient id="linear-gradient-28" x1="14.03" y1="8.02" x2="15.74" y2="8.02" gradientUnits="userSpaceOnUse"><stop offset="0" stop-color="#ff7000"/><stop offset="0.5" stop-color="#ffb300"/><stop offset="1" stop-color="#ff7000"/></linearGradient><linearGradient id="linear-gradient-29" x1="14.57" y1="16.98" x2="18.97" y2="16.98" gradientUnits="userSpaceOnUse"><stop offset="0" stop-color="#de4d00"/><stop offset="0.5" stop-color="#f90"/><stop offset="1" stop-color="#de4d00"/></linearGradient><linearGradient id="linear-gradient-30" x1="14.08" y1="6.7" x2="18.82" y2="16.66" gradientUnits="userSpaceOnUse"><stop offset="0" stop-color="#ffffc7"/><stop offset="0.37" stop-color="#ffd671"/><stop offset="1" stop-color="#ffa600"/></linearGradient></defs><title>ç”»æ¿ 3</title><polygon class="cls-1" points="21.87 17.48 14.23 19.53 14.12 19.63 19.04 38 19.15 37.9 22.24 34.71 22.26 34.68 26.68 35.95 26.8 35.85 21.87 17.48"/><polygon class="cls-2" points="19.15 37.9 22.36 34.58 26.8 35.85 21.87 17.48 14.23 19.53 19.15 37.9"/><path class="cls-3" d="M14.83,19.37l4.83,18,.57-.6-4.71-17.6Zm6.44-1.73-.69.19L25.3,35.42l.8.23Z"/><polygon class="cls-4" points="22.44 34.5 22.36 34.58 26.8 35.85 26.77 35.74 22.44 34.5"/><polygon class="cls-5" points="14.23 19.53 19.15 37.9 19.23 37.82 14.32 19.5 14.23 19.53"/><polygon class="cls-6" points="22.44 34.5 22.36 34.58 26.8 35.85 26.77 35.74 22.44 34.5"/><polygon class="cls-7" points="18.77 19.53 11.13 17.48 6.21 35.85 6.32 35.95 10.74 34.68 13.85 37.9 13.96 38 18.88 19.63 18.77 19.53"/><polygon class="cls-8" points="13.85 37.9 10.64 34.58 6.21 35.85 11.13 17.48 18.77 19.53 13.85 37.9"/><path class="cls-9" d="M17.48,19.18l-4.71,17.6.57.6,4.83-18ZM6.9,35.65l.8-.23,4.72-17.59-.69-.19Z"/><polygon class="cls-6" points="6.23 35.74 6.21 35.85 10.64 34.58 10.56 34.5 6.23 35.74"/><polygon class="cls-10" points="18.68 19.5 13.77 37.82 13.85 37.9 18.77 19.53 18.68 19.5"/><path class="cls-11" d="M23.76,4.8S23.9,3.56,24,3l-1.63.75S22.29,2.53,22.27,2L20.78,3s-.25-1.23-.35-1.76L19.11,2.43,18.49.75,17.38,2.16,16.5.6l-.88,1.56L14.51.75l-.62,1.68L12.57,1.22c-.1.53-.35,1.76-.35,1.76L10.73,2c0,.55-.07,1.79-.07,1.79L9,3c.07.54.21,1.78.21,1.78L7.52,4.32C7.66,4.84,8,6,8,6l-1.78-.2L7,7.46l-1.79.08L6.17,9l-1.75.35,1.21,1.31L4,11.32l1.41,1.11-1.57.87,1.57.88L4,15.29l1.68.62L4.42,17.23l1.75.35-1,1.49L7,19.14l-.75,1.63L8,20.56s-.34,1.2-.48,1.73l1.72-.49S9.1,23,9,23.58l1.63-.75s.05,1.25.07,1.79l1.49-1s.25,1.22.35,1.76l1.32-1.22.62,1.68,1.11-1.4L16.5,26l.88-1.56,1.11,1.4.62-1.68,1.32,1.22c.1-.54.35-1.76.35-1.76l1.49,1c0-.54.07-1.79.07-1.79l1.63.75c-.07-.54-.21-1.78-.21-1.78l1.72.49c-.14-.53-.48-1.73-.48-1.73l1.78.21L26,19.14l1.79-.07-1-1.49,1.75-.35-1.21-1.32,1.68-.62-1.41-1.11,1.57-.88-1.57-.87,1.41-1.11-1.68-.63,1.21-1.31L26.83,9l1-1.5L26,7.46l.75-1.62L25,6s.34-1.2.48-1.72Z"/><path class="cls-12" d="M23.59,5s.16-1.37.21-1.74L22.21,4s-.06-1.38-.07-1.75l-1.46,1s-.27-1.35-.34-1.72L19.05,2.68,18.44,1,17.36,2.41,16.5.89l-.86,1.52L14.56,1,14,2.68,12.66,1.49c-.07.37-.34,1.72-.34,1.72l-1.46-1c0,.37-.07,1.75-.07,1.75L9.2,3.26c.05.37.21,1.74.21,1.74L7.72,4.52l.47,1.69L6.46,6,7.19,7.6l-1.75.07c.2.31,1,1.45,1,1.45l-1.72.35,1.19,1.28-1.64.61,1.37,1.09-1.53.85,1.53.86L4.24,15.25l1.64.6L4.69,17.14l1.72.34-1,1.46L7.19,19s-.58,1.25-.73,1.59l1.73-.2-.47,1.68,1.69-.47S9.25,23,9.2,23.35l1.59-.73s.06,1.37.07,1.75l1.46-1,.34,1.72L14,23.92l.61,1.65,1.08-1.38.86,1.53.86-1.53,1.08,1.38.61-1.65,1.29,1.19.34-1.72,1.46,1c0-.38.07-1.75.07-1.75l1.59.73c-.05-.37-.21-1.74-.21-1.74l1.69.47-.47-1.68,1.73.2L25.81,19l1.75-.07-1-1.46,1.72-.34-1.19-1.29,1.64-.6-1.37-1.09,1.53-.86-1.53-.85,1.37-1.09-1.64-.61,1.19-1.28-1.72-.35s.77-1.14,1-1.45L25.81,7.6,26.54,6l-1.73.2.47-1.69Z"/><path class="cls-13" d="M8.9,4.4,7.09,3.9l.43.42,1.72.48Z"/><path class="cls-13" d="M24,3c-.07.54-.21,1.78-.21,1.78l.34-.4.22-1.86Z"/><path class="cls-13" d="M22.27,2c0,.55.07,1.79.07,1.79l.27-.45-.07-1.87Z"/><path class="cls-13" d="M21,2.49,20.61.65l-.18.57c.1.53.35,1.76.35,1.76Z"/><path class="cls-13" d="M18.49.75l.62,1.68.12-.51L18.58.16Z"/><path class="cls-13" d="M16.5.6l.88,1.56,0-.52L16.5,0Z"/><path class="cls-13" d="M14.51.75l1.11,1.41,0-.52L14.42.16Z"/><path class="cls-13" d="M12.57,1.22l1.32,1.21-.12-.51L12.39.65Z"/><path class="cls-13" d="M10.73,2l1.49,1L12,2.49l-1.56-1Z"/><path class="cls-13" d="M9,3l1.63.75-.28-.45-1.7-.78Z"/><path class="cls-13" d="M25.4,5.7l.5-1.81-.42.43C25.33,4.84,25,6,25,6Z"/><path class="cls-13" d="M26.47,7.18l.79-1.7-.49.35c-.22.5-.74,1.63-.74,1.63Z"/><path class="cls-13" d="M27.31,8.82l1-1.56-.53.27c-.31.45-1,1.49-1,1.49Z"/><path class="cls-13" d="M27.88,10.57l1.27-1.38-.57.18-1.22,1.32Z"/><path class="cls-13" d="M28.16,12.38l1.48-1.16-.6.09-1.4,1.11Z"/><path class="cls-13" d="M28.16,14.22l1.64-.92h-.6l-1.56.88Z"/><path class="cls-13" d="M27.88,16l1.76-.65-.6-.09-1.68.62Z"/><path class="cls-13" d="M27.31,17.78l1.84-.37-.57-.18-1.76.35Z"/><path class="cls-13" d="M26.47,19.41l1.88-.07-.53-.27L26,19.14Z"/><path class="cls-13" d="M25.4,20.9l1.86.22-.49-.35L25,20.56Z"/><path class="cls-13" d="M7.6,20.9l-.5,1.81.42-.43L8,20.56Z"/><path class="cls-13" d="M6.53,19.41l-.79,1.71.49-.35c.22-.5.74-1.63.74-1.63Z"/><path class="cls-13" d="M5.69,17.78l-1,1.56.53-.27,1-1.49Z"/><path class="cls-13" d="M5.12,16,3.85,17.41l.57-.18,1.22-1.32Z"/><path class="cls-13" d="M4.84,14.22,3.36,15.38l.6-.09,1.4-1.11Z"/><path class="cls-13" d="M4.84,12.38,3.2,13.3h.6l1.56-.88Z"/><path class="cls-13" d="M5.12,10.57l-1.76.65.6.09,1.68-.62Z"/><path class="cls-13" d="M5.69,8.82l-1.84.37.57.18L6.18,9Z"/><path class="cls-13" d="M6.53,7.18l-1.88.08.53.27L7,7.46Z"/><path class="cls-13" d="M7.6,5.7,5.74,5.48l.49.35L8,6Z"/><path class="cls-13" d="M24.1,22.19l1.81.51-.43-.42-1.72-.49Z"/><path class="cls-13" d="M9,23.57c.07-.54.21-1.78.21-1.78l-.34.4-.22,1.87Z"/><path class="cls-13" d="M10.73,24.62c0-.55-.07-1.79-.07-1.79l-.28.44.08,1.88Z"/><path class="cls-13" d="M12,24.11,12.39,26l.18-.57c-.1-.53-.35-1.76-.35-1.76Z"/><path class="cls-13" d="M14.51,25.84l-.62-1.68-.12.52.65,1.75Z"/><path class="cls-13" d="M16.5,26l-.88-1.56,0,.52.92,1.64Z"/><path class="cls-13" d="M18.49,25.84l-1.11-1.4,0,.52,1.16,1.47Z"/><path class="cls-13" d="M20.43,25.38l-1.32-1.22.12.52L20.61,26Z"/><path class="cls-13" d="M22.27,24.62l-1.49-1,.2.49,1.56,1Z"/><path class="cls-13" d="M24,23.57l-1.63-.74.28.44,1.7.79Z"/><path class="cls-14" d="M23.76,4.8l1.72-.48.43-.42-1.81.5Z"/><path class="cls-14" d="M22.34,3.77,24,3l.35-.48-1.71.78Z"/><path class="cls-14" d="M20.78,3l1.49-1,.27-.53L21,2.49Z"/><path class="cls-14" d="M19.11,2.43l1.32-1.21.18-.57L19.23,1.92Z"/><path class="cls-14" d="M17.38,2.16,18.49.75l.09-.59L17.42,1.64Z"/><path class="cls-14" d="M15.62,2.16,16.5.6V0l-.92,1.64Z"/><path class="cls-14" d="M13.89,2.43,14.51.75,14.42.16l-.65,1.76Z"/><path class="cls-14" d="M12.22,3s.25-1.23.35-1.76L12.39.65,12,2.49Z"/><path class="cls-14" d="M10.66,3.77s.05-1.24.07-1.79l-.27-.53-.08,1.87Z"/><path class="cls-14" d="M9.24,4.8S9.1,3.56,9,3l-.35-.48L8.9,4.4Z"/><path class="cls-14" d="M25,20.56s.33,1.2.48,1.72l.42.43-.5-1.81Z"/><path class="cls-14" d="M27.26,5.48,25.4,5.7,25,6l1.77-.21Z"/><path class="cls-14" d="M28.35,7.26l-1.88-.08L26,7.46l1.79.07Z"/><path class="cls-14" d="M26.82,9l1.76.35.57-.18-1.84-.37Z"/><path class="cls-14" d="M29.64,11.22l-1.76-.65-.52.12,1.68.62Z"/><path class="cls-14" d="M29.8,13.3l-1.64-.92-.52,0,1.56.88Z"/><path class="cls-14" d="M29.64,15.38l-1.48-1.16-.52,0L29,15.29Z"/><path class="cls-14" d="M29.15,17.41,27.88,16l-.52-.12,1.22,1.32Z"/><path class="cls-14" d="M28.35,19.34l-1-1.56-.49-.2,1,1.49Z"/><path class="cls-14" d="M27.26,21.12l-.79-1.71L26,19.14s.52,1.13.74,1.63Z"/><path class="cls-14" d="M8,6s-.33-1.2-.48-1.72L7.1,3.89,7.6,5.7Z"/><path class="cls-14" d="M5.74,21.12,7.6,20.9l.4-.34-1.77.21Z"/><path class="cls-14" d="M4.65,19.34l1.88.07L7,19.14l-1.79-.07Z"/><path class="cls-14" d="M6.18,17.58l-1.76-.35-.57.18,1.84.37Z"/><path class="cls-14" d="M3.36,15.38,5.12,16l.52-.12L4,15.29Z"/><path class="cls-14" d="M3.2,13.3l1.64.92.52,0L3.8,13.3Z"/><path class="cls-14" d="M3.36,11.22l1.48,1.16.52,0L4,11.31Z"/><path class="cls-14" d="M3.85,9.19l1.27,1.38.52.12L4.42,9.37Z"/><path class="cls-14" d="M4.65,7.26l1,1.56.49.2s-.69-1-1-1.49Z"/><path class="cls-14" d="M5.74,5.48l.79,1.7L7,7.46s-.52-1.13-.74-1.63Z"/><path class="cls-14" d="M9.24,21.79l-1.72.49-.43.42,1.81-.51Z"/><path class="cls-14" d="M10.66,22.83,9,23.57l-.35.49,1.7-.79Z"/><path class="cls-14" d="M12.22,23.62l-1.49,1-.27.53,1.56-1Z"/><path class="cls-14" d="M13.89,24.16l-1.32,1.22-.18.57,1.38-1.27Z"/><path class="cls-14" d="M15.62,24.44l-1.11,1.4-.09.59L15.58,25Z"/><path class="cls-14" d="M17.38,24.44,16.5,26v.6L17.42,25Z"/><path class="cls-14" d="M19.11,24.16l-.62,1.68.09.59.65-1.75Z"/><path class="cls-14" d="M20.78,23.62s-.25,1.23-.35,1.76l.18.57L21,24.11Z"/><path class="cls-14" d="M22.34,22.83s-.05,1.24-.07,1.79l.27.53.08-1.88Z"/><path class="cls-14" d="M23.76,21.79S23.9,23,24,23.57l.35.49-.22-1.87Z"/><path class="cls-15" d="M9.47,20.33a9.92,9.92,0,0,1-2.91-7H5.71a10.75,10.75,0,0,0,3.16,7.63Z"/><path class="cls-16" d="M16.5,3.36a9.92,9.92,0,0,1,7,2.91l.6-.6A10.75,10.75,0,0,0,16.5,2.51Z"/><path class="cls-17" d="M27.29,13.3a10.75,10.75,0,0,0-3.16-7.63l-.6.6a9.9,9.9,0,0,1,2.91,7Z"/><path class="cls-18" d="M24.13,20.93a10.75,10.75,0,0,0,3.16-7.63h-.85a9.92,9.92,0,0,1-2.91,7Z"/><path class="cls-19" d="M9.47,6.27a9.92,9.92,0,0,1,7-2.91V2.51A10.75,10.75,0,0,0,8.87,5.67Z"/><path class="cls-20" d="M6.56,13.3a9.9,9.9,0,0,1,2.91-7l-.6-.6A10.75,10.75,0,0,0,5.71,13.3Z"/><path class="cls-21" d="M16.5,24.09a10.75,10.75,0,0,0,7.63-3.16l-.6-.6a9.92,9.92,0,0,1-7,2.91Z"/><path class="cls-22" d="M8.87,20.93a10.75,10.75,0,0,0,7.63,3.16v-.85a9.92,9.92,0,0,1-7-2.91Z"/><path class="cls-23" d="M23.66,20.46a10.13,10.13,0,1,1,0-14.32A10.12,10.12,0,0,1,23.66,20.46Z"/><path class="cls-24" d="M23.5,20.3a9.9,9.9,0,1,1,0-14A9.89,9.89,0,0,1,23.5,20.3Z"/><path class="cls-25" d="M7.49,10.89a.69.69,0,0,0,.42.54.68.68,0,0,0,.19-.56,1.14,1.14,0,0,0,0-.25,2.36,2.36,0,0,0-.49-.91,2.78,2.78,0,0,0-.12.84A1.83,1.83,0,0,0,7.49,10.89Zm-.33,2.82a.81.81,0,0,0,.65.48.72.72,0,0,0,.09-.45.86.86,0,0,0-.1-.51,3.08,3.08,0,0,0-.86-.88.7.7,0,0,0,0,.16h0A3,3,0,0,0,7.16,13.71Zm.06-1.51a.74.74,0,0,0,.53.52.7.7,0,0,0,.14-.51.89.89,0,0,0,0-.38,2.74,2.74,0,0,0-.67-.9,2.88,2.88,0,0,0,0,.57A2.07,2.07,0,0,0,7.22,12.2Zm1-1.7a.7.7,0,0,0,.52-.45,2.14,2.14,0,0,0,.11-.81,2.39,2.39,0,0,0,0-.37,2.57,2.57,0,0,0-.66.79.88.88,0,0,0-.06.4A.65.65,0,0,0,8.25,10.5Zm.15,5.18a.85.85,0,0,0,.61-.6,2.15,2.15,0,0,0,.1-.79,4.08,4.08,0,0,0,0-.68,3.14,3.14,0,0,0-.78,1.06,1,1,0,0,0-.06.42A.82.82,0,0,0,8.4,15.68ZM8,14.2a.83.83,0,0,0,.69-.42,3,3,0,0,0,.33-1.18v-.16a3,3,0,0,0-.93.8.8.8,0,0,0-.15.57A.79.79,0,0,0,8,14.2Zm1.69,4.36V18.4a.87.87,0,0,0-.07-.3.85.85,0,0,0,.3.32,1,1,0,0,0,.43-.88s0-.05,0-.07,0-.06,0-.09A3.68,3.68,0,0,0,9.93,16a3.69,3.69,0,0,0-.43,1.43s0,0,0,.06,0,.06,0,.09a1.49,1.49,0,0,0,.1.47,1.08,1.08,0,0,0-.43-.42,3.62,3.62,0,0,0-1.46-.33v.16a3.56,3.56,0,0,0,1,1.08A1,1,0,0,0,9.72,18.56ZM7.37,15.39a.89.89,0,0,0,.8.33.7.7,0,0,0,0-.29.89.89,0,0,0-.24-.7A3.23,3.23,0,0,0,6.84,14v.16A3.18,3.18,0,0,0,7.37,15.39ZM10,20A1.08,1.08,0,0,0,11,19.84v-.16a.8.8,0,0,0-.1-.22.86.86,0,0,0,.31.18,1.08,1.08,0,0,0,.27-.81,2,2,0,0,0,0-.4,4.1,4.1,0,0,0-.84-1.4,4.54,4.54,0,0,0-.14,1.17,2.11,2.11,0,0,0,0,.62,1.36,1.36,0,0,0,.16.38,1.28,1.28,0,0,0-.47-.24A4,4,0,0,0,8.6,19v.16A4,4,0,0,0,10,20Zm4.33,1.43v-.15a1,1,0,0,0-.16-.18.87.87,0,0,0,.31.05,1.09,1.09,0,0,0,.09-.53,1.33,1.33,0,0,0-.23-.8,4.26,4.26,0,0,0-1.37-1.16v.16a4.46,4.46,0,0,0,.49,1.72,1.28,1.28,0,0,0,.28.32,1.48,1.48,0,0,0-.49-.05,4.4,4.4,0,0,0-1.69.61v.16a4.38,4.38,0,0,0,1.74.43A1.19,1.19,0,0,0,14.3,21.46Zm-1.79-.65v-.15a1.21,1.21,0,0,0-.13-.21,1,1,0,0,0,.32.12,1.13,1.13,0,0,0,.19-.7,1.33,1.33,0,0,0-.1-.59,4.26,4.26,0,0,0-1.09-1.35s0,.28,0,.64a3.39,3.39,0,0,0,.18,1.24,1.17,1.17,0,0,0,.22.37,1.54,1.54,0,0,0-.5-.17,4.31,4.31,0,0,0-1.71.27v.16a4.13,4.13,0,0,0,1.57.73A1.14,1.14,0,0,0,12.51,20.81ZM7.9,17a.93.93,0,0,0,.89.23.58.58,0,0,0,0-.19,1,1,0,0,0-.36-.82,3.54,3.54,0,0,0-1.28-.57v.16A3.5,3.5,0,0,0,7.9,17Zm0-4.2a.73.73,0,0,0,.68-.29,2.68,2.68,0,0,0,.44-1v-.16a2.88,2.88,0,0,0-.94.61.8.8,0,0,0-.21.61A.7.7,0,0,0,8,12.75Zm.81,3.61A.91.91,0,0,0,9,17.1a1,1,0,0,0,.56-.73,1.85,1.85,0,0,0,0-.41,3.87,3.87,0,0,0-.17-1.14,3.53,3.53,0,0,0-.66,1.23A1.78,1.78,0,0,0,8.76,16.36ZM8.34,10.7a.7.7,0,0,0-.26.62.5.5,0,0,0,0,.17.69.69,0,0,0,.65-.18,2.52,2.52,0,0,0,.54-.88v-.16A2.58,2.58,0,0,0,8.34,10.7ZM16,20.1a4.71,4.71,0,0,0-1.68-.82v.16a4.55,4.55,0,0,0,.93,1.61,1.54,1.54,0,0,0,.36.26,1.38,1.38,0,0,0-.47.06,4.65,4.65,0,0,0-1.54,1v.16a4.6,4.6,0,0,0,1.86,0,1.24,1.24,0,0,0,.89-.84v-.16a1.23,1.23,0,0,0-.2-.13,1.17,1.17,0,0,0,.28,0,1.17,1.17,0,0,0,0-.26A1.29,1.29,0,0,0,16,20.1Z"/><path class="cls-26" d="M15.11,21.37a4.65,4.65,0,0,0-1.54,1,4.41,4.41,0,0,0,1.86,0,1.24,1.24,0,0,0,.89-.84A1.25,1.25,0,0,0,15.11,21.37ZM16,20.1a4.71,4.71,0,0,0-1.68-.82,4.65,4.65,0,0,0,.93,1.62,1.26,1.26,0,0,0,1.18.35A1.25,1.25,0,0,0,16,20.1ZM14.3,21.31a1.2,1.2,0,0,0-1.08-.47,4.4,4.4,0,0,0-1.69.61,4.51,4.51,0,0,0,1.74.44A1.19,1.19,0,0,0,14.3,21.31Zm.15-.29a1.19,1.19,0,0,0-.14-1.17,4.26,4.26,0,0,0-1.37-1.16,4.54,4.54,0,0,0,.49,1.73A1.21,1.21,0,0,0,14.45,21Zm-1.94-.36a1.17,1.17,0,0,0-.94-.65,4.31,4.31,0,0,0-1.71.27,4.13,4.13,0,0,0,1.57.73A1.14,1.14,0,0,0,12.51,20.66Zm.19-.24a1.18,1.18,0,0,0,.09-1.14,4.26,4.26,0,0,0-1.09-1.35,4.2,4.2,0,0,0,.15,1.73A1.17,1.17,0,0,0,12.7,20.42ZM11,19.68a1.1,1.1,0,0,0-.8-.72A4,4,0,0,0,8.6,19a4.13,4.13,0,0,0,1.37.89A1.1,1.1,0,0,0,11,19.68Zm.21-.2a1.08,1.08,0,0,0,.23-1.05,4.1,4.1,0,0,0-.84-1.4,4,4,0,0,0-.09,1.63A1.09,1.09,0,0,0,11.24,19.48ZM9.72,18.4a1,1,0,0,0-.55-.81,3.62,3.62,0,0,0-1.46-.33,3.56,3.56,0,0,0,1,1.08A1,1,0,0,0,9.72,18.4Zm.23-.14a1,1,0,0,0,.43-.88A3.68,3.68,0,0,0,9.93,16a3.69,3.69,0,0,0-.43,1.43A1,1,0,0,0,10,18.26Zm-2-1.47a.93.93,0,0,0,.89.23.93.93,0,0,0-.35-.85,3.54,3.54,0,0,0-1.28-.57A3.41,3.41,0,0,0,7.9,16.79ZM9,16.94a.93.93,0,0,0,.56-.73,3.45,3.45,0,0,0-.15-1.39,3.53,3.53,0,0,0-.66,1.23A.94.94,0,0,0,9,16.94Zm-.86-1.37A.88.88,0,0,0,8,14.73,3.23,3.23,0,0,0,6.84,14a3.12,3.12,0,0,0,.53,1.2A.88.88,0,0,0,8.17,15.57ZM9,14.92a3.17,3.17,0,0,0,.06-1.31,3.14,3.14,0,0,0-.78,1.06.84.84,0,0,0,.11.85A.85.85,0,0,0,9,14.92ZM7.81,14a.8.8,0,0,0,0-.8,3.08,3.08,0,0,0-.86-.88,3,3,0,0,0,.22,1.21A.81.81,0,0,0,7.81,14Zm.91-.41a3,3,0,0,0,.33-1.18,3,3,0,0,0-.93.8A.83.83,0,0,0,8,14,.83.83,0,0,0,8.72,13.62Zm-1-1.06a.74.74,0,0,0,.09-.73,2.74,2.74,0,0,0-.67-.9,2.75,2.75,0,0,0,0,1.12A.74.74,0,0,0,7.75,12.56Zm.88-.26a2.68,2.68,0,0,0,.44-1,2.88,2.88,0,0,0-.94.61A.76.76,0,0,0,8,12.6.76.76,0,0,0,8.63,12.3Zm-.72-1a.67.67,0,0,0,.17-.65,2.36,2.36,0,0,0-.49-.91,2.5,2.5,0,0,0-.1,1A.68.68,0,0,0,7.91,11.27Zm.18.06a.66.66,0,0,0,.65-.18,2.52,2.52,0,0,0,.54-.88,2.58,2.58,0,0,0-.94.43A.68.68,0,0,0,8.09,11.33ZM8.77,9.9a2.52,2.52,0,0,0,.1-1,2.57,2.57,0,0,0-.66.79.7.7,0,0,0,0,.68A.67.67,0,0,0,8.77,9.9Z"/><path class="cls-27" d="M8.28,9.69h0a.83.83,0,0,0-.06.29.56.56,0,0,0,.07.28.62.62,0,0,0,.4-.39,2,2,0,0,0,.11-.71V9A2.24,2.24,0,0,0,8.28,9.69Zm-.73.79a1,1,0,0,0,0,.24h0a.62.62,0,0,0,.32.46A.61.61,0,0,0,8,10.79a.92.92,0,0,0,0-.16,2.29,2.29,0,0,0-.38-.75A2.42,2.42,0,0,0,7.55,10.48Zm.84.28h0a.65.65,0,0,0-.23.48v0a.64.64,0,0,0,.53-.17,2.14,2.14,0,0,0,.46-.71A2.21,2.21,0,0,0,8.39,10.76Zm-1.18.66a2,2,0,0,0,.08.6.71.71,0,0,0,.43.45.7.7,0,0,0,.09-.34.79.79,0,0,0,0-.28,2.37,2.37,0,0,0-.53-.76A3.08,3.08,0,0,0,7.21,11.42Zm1,.51h0a.71.71,0,0,0-.19.48.31.31,0,0,0,0,.11.66.66,0,0,0,.56-.27A2.51,2.51,0,0,0,9,11.41,2.33,2.33,0,0,0,8.19,11.93Zm-1,1.59h0a.78.78,0,0,0,.54.43.75.75,0,0,0,.06-.29,1,1,0,0,0-.1-.4A2.58,2.58,0,0,0,7,12.51,2.57,2.57,0,0,0,7.23,13.52Zm.95-.24a.82.82,0,0,0-.14.45.88.88,0,0,0,0,.23.73.73,0,0,0,.57-.38,2.51,2.51,0,0,0,.3-1A2.68,2.68,0,0,0,8.18,13.28Zm.18,1.41h0a1,1,0,0,0,0,.32.7.7,0,0,0,.12.42.82.82,0,0,0,.51-.54A2.15,2.15,0,0,0,9,14.21c0-.17,0-.33,0-.44A2.82,2.82,0,0,0,8.36,14.69Zm-.93.49a.85.85,0,0,0,.67.32.54.54,0,0,0,0-.15.86.86,0,0,0-.23-.57A3,3,0,0,0,7,14.16,2.69,2.69,0,0,0,7.43,15.18Zm1.43.89h0a.78.78,0,0,0,0,.21.84.84,0,0,0,.2.57.88.88,0,0,0,.47-.66,1.55,1.55,0,0,0,0-.31A3.67,3.67,0,0,0,9.41,15,3,3,0,0,0,8.86,16.07ZM8,16.73H8a.84.84,0,0,0,.77.23v-.05a.89.89,0,0,0-.34-.68,3,3,0,0,0-1.09-.51A3,3,0,0,0,8,16.73Zm1.63.65h0a.94.94,0,0,0,.37.78.94.94,0,0,0,.35-.78h0a3.49,3.49,0,0,0-.37-1.25A3.26,3.26,0,0,0,9.58,17.38Zm1,.75a2.16,2.16,0,0,0,.06.51h0a1,1,0,0,0,.59.75.9.9,0,0,0,.22-.63,1.2,1.2,0,0,0,0-.31,3.64,3.64,0,0,0-.72-1.25A4.82,4.82,0,0,0,10.56,18.13Zm-1.78.15h0a1,1,0,0,0,.86.07,1,1,0,0,0-.51-.7,3.4,3.4,0,0,0-1.27-.3A3.34,3.34,0,0,0,8.78,18.28Zm3,.22a3.2,3.2,0,0,0,.17,1.13h0a1.11,1.11,0,0,0,.74.7,1,1,0,0,0,.15-.54,1.15,1.15,0,0,0-.1-.48,3.83,3.83,0,0,0-1-1.22C11.76,18.19,11.75,18.33,11.75,18.5Zm1.75,1.88h0a1.12,1.12,0,0,0,.9.56,1.13,1.13,0,0,0,.06-.36,1.23,1.23,0,0,0-.21-.69A4.31,4.31,0,0,0,13,18.83,4.17,4.17,0,0,0,13.5,20.38ZM8.77,19A3.71,3.71,0,0,0,10,19.8a1,1,0,0,0,.95-.14,1,1,0,0,0-.73-.62A3.3,3.3,0,0,0,8.77,19Zm6.51,1.8h0a1.14,1.14,0,0,0,1,.34s0-.06,0-.12a1.21,1.21,0,0,0-.43-.9,4.11,4.11,0,0,0-1.49-.76A4.12,4.12,0,0,0,15.28,20.84ZM10,20.3a3.71,3.71,0,0,0,1.41.64,1.07,1.07,0,0,0,1-.3,1.07,1.07,0,0,0-.85-.55A3.92,3.92,0,0,0,10,20.3Zm3.19.62a4,4,0,0,0-1.52.52,4.07,4.07,0,0,0,1.57.37,1.12,1.12,0,0,0,.94-.5A1.13,1.13,0,0,0,13.22,20.92Zm1.92.53h0a4.13,4.13,0,0,0-1.41.91,4.14,4.14,0,0,0,1.68,0,1.15,1.15,0,0,0,.82-.74A1.15,1.15,0,0,0,15.14,21.45Z"/><path class="cls-28" d="M25.53,10.55a2.78,2.78,0,0,0-.12-.84,2.36,2.36,0,0,0-.49.91,1.14,1.14,0,0,0,0,.25.68.68,0,0,0,.19.56.69.69,0,0,0,.42-.54A1.83,1.83,0,0,0,25.53,10.55Zm.53,2h0a.7.7,0,0,0,0-.16,3.08,3.08,0,0,0-.86.88.86.86,0,0,0-.1.51.72.72,0,0,0,.09.45.81.81,0,0,0,.65-.48A3,3,0,0,0,26.06,12.51Zm-.19-1a2.88,2.88,0,0,0,0-.57,2.74,2.74,0,0,0-.67.9.89.89,0,0,0-.05.38.7.7,0,0,0,.14.51.74.74,0,0,0,.53-.52A2.07,2.07,0,0,0,25.87,11.5Zm-1-1.44a.88.88,0,0,0-.06-.4,2.57,2.57,0,0,0-.66-.79,2.39,2.39,0,0,0,0,.37,2.14,2.14,0,0,0,.11.81.7.7,0,0,0,.52.45A.65.65,0,0,0,24.85,10.06Zm-.08,5a1,1,0,0,0-.06-.42,3.14,3.14,0,0,0-.78-1.06,4.08,4.08,0,0,0,0,.68,2.15,2.15,0,0,0,.1.79.85.85,0,0,0,.61.6A.82.82,0,0,0,24.77,15.09ZM25,13.81a.8.8,0,0,0-.15-.57,3,3,0,0,0-.93-.8v.16a3,3,0,0,0,.33,1.18.83.83,0,0,0,.69.42A.79.79,0,0,0,25,13.81Zm-.77,4.69a3.56,3.56,0,0,0,1-1.08v-.16a3.62,3.62,0,0,0-1.46.33,1.08,1.08,0,0,0-.43.42,1.49,1.49,0,0,0,.1-.47s0-.06,0-.09,0,0,0-.06A3.69,3.69,0,0,0,23.07,16a3.68,3.68,0,0,0-.45,1.42s0,.06,0,.09,0,.05,0,.07a1,1,0,0,0,.43.88.85.85,0,0,0,.3-.32.87.87,0,0,0-.07.3v.16A1,1,0,0,0,24.26,18.5Zm1.9-4.31V14a3.23,3.23,0,0,0-1.11.7.89.89,0,0,0-.24.7.7.7,0,0,0,0,.29.89.89,0,0,0,.8-.33A3.18,3.18,0,0,0,26.16,14.19Zm-1.76,5V19a4,4,0,0,0-1.63,0,1.28,1.28,0,0,0-.47.24,1.36,1.36,0,0,0,.16-.38,2.11,2.11,0,0,0,.05-.62A4.54,4.54,0,0,0,22.37,17a4.1,4.1,0,0,0-.84,1.4,2,2,0,0,0,0,.4,1.08,1.08,0,0,0,.27.81.86.86,0,0,0,.31-.18.8.8,0,0,0-.1.22v.16A1.08,1.08,0,0,0,23,20,4,4,0,0,0,24.4,19.15ZM19.73,22a4.38,4.38,0,0,0,1.74-.43v-.16a4.4,4.4,0,0,0-1.69-.61,1.48,1.48,0,0,0-.49.05,1.28,1.28,0,0,0,.28-.32,4.46,4.46,0,0,0,.49-1.72v-.16a4.26,4.26,0,0,0-1.37,1.16,1.33,1.33,0,0,0-.23.8,1.09,1.09,0,0,0,.09.53.87.87,0,0,0,.31-.05,1,1,0,0,0-.16.18v.15A1.19,1.19,0,0,0,19.73,22Zm1.84-.87a4.13,4.13,0,0,0,1.57-.73v-.16A4.31,4.31,0,0,0,21.43,20a1.54,1.54,0,0,0-.5.17,1.17,1.17,0,0,0,.22-.37,3.39,3.39,0,0,0,.18-1.24c0-.36,0-.64,0-.64a4.26,4.26,0,0,0-1.09,1.35,1.33,1.33,0,0,0-.1.59,1.13,1.13,0,0,0,.19.7,1,1,0,0,0,.32-.12,1.21,1.21,0,0,0-.13.21v.15A1.14,1.14,0,0,0,21.57,21.17Zm4.27-5.41V15.6a3.54,3.54,0,0,0-1.28.57,1,1,0,0,0-.36.82.58.58,0,0,0,0,.19A.93.93,0,0,0,25.1,17,3.5,3.5,0,0,0,25.84,15.76Zm-.76-3.27a.8.8,0,0,0-.21-.61,2.88,2.88,0,0,0-.94-.61v.16a2.68,2.68,0,0,0,.44,1,.73.73,0,0,0,.68.29A.7.7,0,0,0,25.08,12.49Zm-.86,3.56a3.53,3.53,0,0,0-.66-1.23A3.87,3.87,0,0,0,23.39,16a1.85,1.85,0,0,0,0,.41,1,1,0,0,0,.56.73.91.91,0,0,0,.27-.74A1.78,1.78,0,0,0,24.22,16.05Zm-.5-5.78v.16a2.52,2.52,0,0,0,.54.88.69.69,0,0,0,.65.18.5.5,0,0,0,0-.17.7.7,0,0,0-.26-.62A2.58,2.58,0,0,0,23.72,10.27ZM16.59,21.15a1.17,1.17,0,0,0,0,.26,1.17,1.17,0,0,0,.28,0,1.23,1.23,0,0,0-.2.13v.16a1.24,1.24,0,0,0,.89.84,4.6,4.6,0,0,0,1.86,0v-.16a4.65,4.65,0,0,0-1.54-1,1.38,1.38,0,0,0-.47-.06,1.54,1.54,0,0,0,.36-.26,4.55,4.55,0,0,0,.93-1.61v-.16A4.71,4.71,0,0,0,17,20.1,1.29,1.29,0,0,0,16.59,21.15Z"/><path class="cls-29" d="M16.68,21.57a1.24,1.24,0,0,0,.89.84,4.41,4.41,0,0,0,1.86,0,4.65,4.65,0,0,0-1.54-1A1.25,1.25,0,0,0,16.68,21.57Zm-.08-.32a1.26,1.26,0,0,0,1.18-.35,4.65,4.65,0,0,0,.93-1.62A4.71,4.71,0,0,0,17,20.1,1.25,1.25,0,0,0,16.6,21.25Zm3.13.64a4.51,4.51,0,0,0,1.74-.44,4.4,4.4,0,0,0-1.69-.61,1.2,1.2,0,0,0-1.08.47A1.19,1.19,0,0,0,19.73,21.89Zm-.16-1.47a4.54,4.54,0,0,0,.49-1.73,4.26,4.26,0,0,0-1.37,1.16A1.19,1.19,0,0,0,18.55,21,1.21,1.21,0,0,0,19.57,20.42Zm2,.59a4.13,4.13,0,0,0,1.57-.73A4.31,4.31,0,0,0,21.43,20a1.17,1.17,0,0,0-.94.65A1.14,1.14,0,0,0,21.57,21Zm-.42-1.35a4.2,4.2,0,0,0,.15-1.73,4.26,4.26,0,0,0-1.09,1.35,1.18,1.18,0,0,0,.09,1.14A1.17,1.17,0,0,0,21.15,19.66Zm1.88.22A4.13,4.13,0,0,0,24.4,19a4,4,0,0,0-1.63,0,1.1,1.1,0,0,0-.8.72A1.1,1.1,0,0,0,23,19.88Zm-.57-1.22A4,4,0,0,0,22.37,17a4.1,4.1,0,0,0-.84,1.4,1.08,1.08,0,0,0,.23,1.05A1.09,1.09,0,0,0,22.46,18.66Zm1.8-.32a3.56,3.56,0,0,0,1-1.08,3.62,3.62,0,0,0-1.46.33,1,1,0,0,0-.55.81A1,1,0,0,0,24.26,18.34Zm-.76-.95A3.69,3.69,0,0,0,23.07,16a3.68,3.68,0,0,0-.45,1.42,1,1,0,0,0,.43.88A1,1,0,0,0,23.5,17.39Zm2.34-1.79a3.54,3.54,0,0,0-1.28.57.93.93,0,0,0-.35.85.93.93,0,0,0,.89-.23A3.41,3.41,0,0,0,25.84,15.6Zm-1.62.45a3.53,3.53,0,0,0-.66-1.23,3.45,3.45,0,0,0-.15,1.39.93.93,0,0,0,.56.73A.94.94,0,0,0,24.22,16.05Zm1.41-.82a3.12,3.12,0,0,0,.53-1.2,3.23,3.23,0,0,0-1.11.7.88.88,0,0,0-.22.84A.88.88,0,0,0,25.63,15.23Zm-1,.29a.84.84,0,0,0,.11-.85,3.14,3.14,0,0,0-.78-1.06A3.17,3.17,0,0,0,24,14.92.85.85,0,0,0,24.6,15.52Zm1.24-2a3,3,0,0,0,.22-1.21,3.08,3.08,0,0,0-.86.88.8.8,0,0,0,0,.8A.81.81,0,0,0,25.84,13.56ZM25,14a.83.83,0,0,0-.09-.8,3,3,0,0,0-.93-.8,3,3,0,0,0,.33,1.18A.83.83,0,0,0,25,14Zm.81-2a2.75,2.75,0,0,0,0-1.12,2.74,2.74,0,0,0-.67.9.74.74,0,0,0,.09.73A.74.74,0,0,0,25.78,12.05Zm-.73.55a.76.76,0,0,0-.18-.72,2.88,2.88,0,0,0-.94-.61,2.68,2.68,0,0,0,.44,1A.76.76,0,0,0,25.05,12.6Zm.46-1.86a2.5,2.5,0,0,0-.1-1,2.36,2.36,0,0,0-.49.91.67.67,0,0,0,.17.65A.68.68,0,0,0,25.51,10.74Zm-.85,0a2.58,2.58,0,0,0-.94-.43,2.52,2.52,0,0,0,.54.88.66.66,0,0,0,.65.18A.68.68,0,0,0,24.66,10.7Zm.09-.36a.7.7,0,0,0,0-.68,2.57,2.57,0,0,0-.66-.79,2.52,2.52,0,0,0,.1,1A.67.67,0,0,0,24.75,10.34Z"/><path class="cls-30" d="M24.2,9v.13a2,2,0,0,0,.11.71.62.62,0,0,0,.4.39.56.56,0,0,0,.07-.28.83.83,0,0,0-.06-.29h0A2.24,2.24,0,0,0,24.2,9Zm1.17.85a2.29,2.29,0,0,0-.38.75.92.92,0,0,0,0,.16.61.61,0,0,0,.13.39.62.62,0,0,0,.32-.46h0a1,1,0,0,0,0-.24A2.42,2.42,0,0,0,25.37,9.88Zm-1.52.51a2.14,2.14,0,0,0,.46.71.64.64,0,0,0,.53.17v0a.65.65,0,0,0-.23-.48h0A2.21,2.21,0,0,0,23.85,10.39Zm1.92.7a2.37,2.37,0,0,0-.53.76.79.79,0,0,0,0,.28.7.7,0,0,0,.09.34.71.71,0,0,0,.43-.45,2,2,0,0,0,.08-.6A3.08,3.08,0,0,0,25.77,11.09ZM24,11.41a2.51,2.51,0,0,0,.39.84.66.66,0,0,0,.56.27.31.31,0,0,0,0-.11.71.71,0,0,0-.19-.48h0A2.33,2.33,0,0,0,24,11.41ZM26,12.51a2.58,2.58,0,0,0-.71.75,1,1,0,0,0-.1.4.75.75,0,0,0,.06.29.77.77,0,0,0,.54-.43h0A2.57,2.57,0,0,0,26,12.51Zm-1.93.08a2.51,2.51,0,0,0,.3,1,.73.73,0,0,0,.57.38.88.88,0,0,0,0-.23.82.82,0,0,0-.14-.45A2.68,2.68,0,0,0,24.05,12.59ZM24,13.77c0,.11,0,.27,0,.44a2.15,2.15,0,0,0,.09.68.82.82,0,0,0,.51.54.7.7,0,0,0,.12-.42,1,1,0,0,0-.05-.32h0A2.82,2.82,0,0,0,24,13.77Zm2.06.39a2.87,2.87,0,0,0-.94.62.86.86,0,0,0-.23.57.54.54,0,0,0,0,.15.85.85,0,0,0,.67-.32A2.9,2.9,0,0,0,26.05,14.16ZM23.59,15a3.67,3.67,0,0,0-.13.89,1.55,1.55,0,0,0,0,.31.88.88,0,0,0,.47.66.84.84,0,0,0,.2-.57.78.78,0,0,0,0-.21h0A3,3,0,0,0,23.59,15Zm2.12.73a3,3,0,0,0-1.09.51.89.89,0,0,0-.34.68V17a.84.84,0,0,0,.77-.23h0A3,3,0,0,0,25.71,15.72Zm-2.64.41a3.49,3.49,0,0,0-.37,1.25h0a.94.94,0,0,0,.35.78.94.94,0,0,0,.37-.78h0A3.26,3.26,0,0,0,23.07,16.13Zm-.74,1.07a3.64,3.64,0,0,0-.72,1.25,1.2,1.2,0,0,0,0,.31.9.9,0,0,0,.22.63,1,1,0,0,0,.59-.75h0a2.16,2.16,0,0,0,.06-.51A4.82,4.82,0,0,0,22.33,17.2Zm2.81.15a3.4,3.4,0,0,0-1.27.3,1,1,0,0,0-.51.7,1,1,0,0,0,.86-.07h0A3.34,3.34,0,0,0,25.14,17.35Zm-3.9.74a3.83,3.83,0,0,0-.95,1.22,1.15,1.15,0,0,0-.1.48,1,1,0,0,0,.15.54,1.11,1.11,0,0,0,.74-.7h0a3.2,3.2,0,0,0,.17-1.13C21.25,18.33,21.24,18.19,21.24,18.09ZM20,18.83a4.31,4.31,0,0,0-1.22,1.06,1.23,1.23,0,0,0-.21.69,1.13,1.13,0,0,0,.06.36,1.12,1.12,0,0,0,.9-.56h0A4.17,4.17,0,0,0,20,18.83Zm2.82.21a1,1,0,0,0-.73.62,1,1,0,0,0,1,.14A3.71,3.71,0,0,0,24.23,19,3.3,3.3,0,0,0,22.79,19Zm-4.21.36a4.11,4.11,0,0,0-1.49.76,1.21,1.21,0,0,0-.43.9c0,.06,0,.1,0,.12a1.14,1.14,0,0,0,1-.34h0A4.12,4.12,0,0,0,18.58,19.4Zm2.86.69a1.07,1.07,0,0,0-.85.55,1.07,1.07,0,0,0,1,.3A3.71,3.71,0,0,0,23,20.3,3.92,3.92,0,0,0,21.44,20.09Zm-2.65,1.22a1.12,1.12,0,0,0,.94.5,4.07,4.07,0,0,0,1.57-.37,3.9,3.9,0,0,0-1.52-.52A1.13,1.13,0,0,0,18.79,21.31Zm-2,.29a1.15,1.15,0,0,0,.82.74,4.14,4.14,0,0,0,1.68,0,4.13,4.13,0,0,0-1.41-.91h0A1.15,1.15,0,0,0,16.77,21.6Z"/><path class="cls-31" d="M14.57,16.82v-1l.57-.09c.47-.1.6-.62.6-1.46V7.87H14V6.65h.4a1.94,1.94,0,0,0,2-1.27h1.34v8.86c0,.84.15,1.36.62,1.46l.58.09v1Z"/><rect class="cls-32" x="14.03" y="7.87" width="1.71" height="0.31"/><rect class="cls-33" x="14.57" y="16.82" width="4.4" height="0.31"/><path class="cls-34" d="M16.52,5.54a2.07,2.07,0,0,1-2.09,1.27h-.24v.9h1.7v6.53c0,.73-.08,1.49-.72,1.61l-.44.07v.74h4.08v-.74l-.45-.07c-.66-.13-.75-.93-.75-1.61V5.54Z"/></svg>