<?xml version="1.0" standalone="no"?><!DOCTYPE svg PUBLIC "-//W3C//DTD SVG 1.1//EN" "http://www.w3.org/Graphics/SVG/1.1/DTD/svg11.dtd"><svg t="1620622748118" class="icon" viewBox="0 0 1024 1024" version="1.1" xmlns="http://www.w3.org/2000/svg" p-id="6158" xmlns:xlink="http://www.w3.org/1999/xlink" width="128" height="128"><defs><style type="text/css"></style></defs><path d="M228.5 1000.9c-12.1 0-24.3-3.9-34.8-11.6-20.9-15.4-29.1-41.2-20.9-65.8l89.6-269.8c3.6-10.9-0.2-22.9-9.4-29.7L24 455.4C3.2 440-5 414.2 3.1 389.6c8.2-24.6 30.2-40.4 56.1-40.2l284.3 1.8h0.2c11.4 0 21.5-7.3 25.2-18.2l89.6-269.8c8.1-24.5 29.9-40.2 55.7-40.2h0.4c25.9 0.2 47.7 16.2 55.6 40.9l86 271.1c3.5 11 13.6 18.4 25.1 18.5l284.3 1.8c25.9 0.2 47.7 16.2 55.6 40.9 7.8 24.7-0.7 50.4-21.7 65.5L768.3 627.3c-9.4 6.7-13.3 18.6-9.8 29.6l16.1 50.6c5.1 15.9-3.7 33-19.7 38-15.9 5.1-33-3.7-38-19.7l-16.1-50.6c-11.5-36.1 1.5-75.1 32.3-97.2l226.3-162.2-278.5-1.8c-37.9-0.2-71-24.6-82.4-60.7L514.1 87.9l-87.8 264.3c-11.9 35.7-45 59.7-82.7 59.7h-0.6l-278.5-1.8 224.2 165.1c30.5 22.4 42.9 61.7 31 97.6l-87.8 264.3 226.3-162.2c30.8-22.1 71.9-21.8 102.4 0.7l21.4 15.7c13.5 9.9 16.4 28.9 6.4 42.4-9.9 13.5-28.9 16.4-42.4 6.4l-21.4-15.7c-9.3-6.8-21.8-6.9-31.2-0.2L262.7 989.7c-10.4 7.5-22.3 11.2-34.2 11.2zM768.8 991.6L669.2 892c-12.4-12.4-12.4-32.8 0-45.3 12.4-12.4 32.8-12.4 45.3 0l99.6 99.6c12.4 12.4 12.4 32.8 0 45.3-12.4 12.4-32.8 12.4-45.3 0z" fill="" p-id="6159"></path><path d="M1000.3 805.4L814.1 991.6c-12.4 12.4-32.8 12.4-45.3 0-12.4-12.4-12.4-32.8 0-45.3L955 760.2c12.4-12.4 32.8-12.4 45.3 0 12.4 12.4 12.4 32.8 0 45.2z" fill="" p-id="6160"></path></svg>