<?xml version="1.0" standalone="no"?><!DOCTYPE svg PUBLIC "-//W3C//DTD SVG 1.1//EN" "http://www.w3.org/Graphics/SVG/1.1/DTD/svg11.dtd"><svg t="1533191728251" class="icon" style="" viewBox="0 0 1024 1024" version="1.1" xmlns="http://www.w3.org/2000/svg" p-id="9063" xmlns:xlink="http://www.w3.org/1999/xlink" width="200" height="200"><defs><style type="text/css"></style></defs><path d="M490.666667 938.666667c174.677333 0 362.666667-106.837333 362.666666-341.333334 0-7.722667-1.109333-189.44-97.834666-286.165333a42.666667 42.666667 0 0 0-71.552 19.84c-12.16 48.682667-31.744 80.213333-52.010667 100.650667 21.418667-77.525333 16.896-145.450667-13.738667-202.709334-65.024-121.472-222.250667-142.464-228.906666-143.274666a43.434667 43.434667 0 0 0-33.536 10.325333A42.666667 42.666667 0 0 0 341.333333 128c0 1.066667-0.853333 111.146667-72.832 183.168C180.864 398.805333 128 451.669333 128 597.333333c0 235.776 182.186667 341.333333 362.666667 341.333334zM328.832 371.498667c61.056-61.056 84.010667-139.690667 92.629333-190.890667 39.082667 12.373333 94.72 38.186667 121.685334 88.96 29.098667 54.698667 20.138667 129.834667-26.624 223.317333A42.666667 42.666667 0 0 0 554.666667 554.666667c5.546667 0 115.882667-1.621333 180.821333-120.874667 31.786667 73.856 32.512 162.432 32.512 163.541333 0 144.426667-87.338667 217.472-185.6 243.968-43.221333 4.949333-171.050667-5.845333-241.066667-286.634666 0 0-59.178667 148.266667-29.354666 246.869333C254.506667 761.6 213.333333 696.32 213.333333 597.333333c0-110.336 31.445333-141.781333 115.498667-225.834666z" fill="" p-id="9064"></path></svg>