<?xml version="1.0" standalone="no"?><!DOCTYPE svg PUBLIC "-//W3C//DTD SVG 1.1//EN" "http://www.w3.org/Graphics/SVG/1.1/DTD/svg11.dtd"><svg t="1555403052240" class="icon" style="" viewBox="0 0 1024 1024" version="1.1" xmlns="http://www.w3.org/2000/svg" p-id="4479" xmlns:xlink="http://www.w3.org/1999/xlink" width="300" height="300"><defs><style type="text/css"></style></defs><path d="M761.976471 322.258824c-3.011765-9.035294-12.047059-12.047059-21.082353-12.047059-15.058824 0-27.105882 12.047059-27.105883 24.094117 0 6.023529 3.011765 12.047059 6.02353 15.058824 45.176471 48.188235 72.282353 114.447059 72.282353 183.717647s-27.105882 135.529412-72.282353 183.717647c-3.011765 6.023529-6.023529 12.047059-6.02353 18.070588 0 15.058824 12.047059 24.094118 27.105883 24.094118 9.035294 0 18.070588-6.023529 21.082353-12.047059 51.2-57.223529 81.317647-132.517647 81.317647-216.847059-3.011765-75.294118-33.129412-150.588235-81.317647-207.811764z m126.494117-126.494118c-6.023529-6.023529-12.047059-12.047059-21.082353-12.047059-15.058824 0-27.105882 12.047059-27.105882 24.094118 0 6.023529 3.011765 12.047059 6.023529 15.058823 78.305882 81.317647 123.482353 189.741176 123.482353 310.211765s-48.188235 228.894118-123.482353 310.211765c-3.011765 3.011765-6.023529 9.035294-6.023529 15.058823 0 15.058824 12.047059 24.094118 27.105882 24.094118 9.035294 0 18.070588-6.023529 21.082353-12.047059 84.329412-90.352941 135.529412-210.823529 135.529412-340.329412 0-126.494118-51.2-243.952941-135.529412-334.305882z m-337.317647-120.470588c-6.023529 0-9.035294 0-15.058823 3.011764l-301.176471 207.811765H51.2c-30.117647 0-51.2 24.094118-51.2 51.2v343.341177c0 27.105882 24.094118 51.2 51.2 51.2h183.717647l301.176471 207.811764h3.011764c12.047059 6.023529 30.117647 3.011765 36.141177-9.035294 3.011765-6.023529 3.011765-12.047059 3.011765-18.070588v-813.176471c0-12.047059-12.047059-24.094118-27.105883-24.094117zM183.717647 674.635294H60.235294V349.364706h120.470588v325.270588z m334.305882 177.694118l-274.070588-171.670588V364.423529l274.070588-171.670588v659.576471z" p-id="4480"></path></svg>