<svg xmlns="http://www.w3.org/2000/svg" viewBox="0 0 350.36 362.14"><defs><style>.cls-1{fill:#58bfe8;}.cls-2{opacity:0.5;}.cls-3{fill:#036eb8;}.cls-4{opacity:0.75;}.cls-5{fill:#fff;}.cls-6{fill:#f8b62d;}.cls-7{fill:#121b3c;}.cls-8{fill:#ffe200;}.cls-9{opacity:0.18;}.cls-10{fill:#f5c71d;}.cls-11{fill:#dd8db9;}</style></defs><title>资源 2</title><g id="图层_2" data-name="图层 2"><g id="图层_1-2" data-name="图层 1"><polygon class="cls-1" points="176 194.47 176.32 320.64 286.5 257.03 286.18 130.86 176 194.47"/><polygon class="cls-1" points="176 194.47 65.7 130.37 66.03 256.54 176.32 320.64 176 194.47"/><polygon class="cls-1" points="65.7 130.37 176 194.47 286.18 130.86 176 66.83 175.88 66.76 65.7 130.37"/><polygon class="cls-1" points="176 194.47 176.25 194.81 206.04 236.84 314.67 174.47 315.26 174.13 286.18 130.86 176 194.47"/><polygon class="cls-1" points="175.23 194.47 174.99 194.81 145.2 236.84 36.56 174.47 35.97 174.13 65.05 130.86 175.23 194.47"/><g class="cls-2"><polygon class="cls-3" points="65.7 130.37 176 194.47 176 66.83 175.88 66.76 65.7 130.37"/><path class="cls-3" d="M176.25,194.81l29.79,42,108.63-62.36c-5.07-3.59-14.36-6-29.83,2.67-45,25.33-64.09,41.73-79.18,30.48C196.48,200.8,187.4,189.3,176.25,194.81Z"/><path class="cls-3" d="M175,194.81l-29.79,42L36.56,174.48c5.07-3.59,14.36-6,29.84,2.67,45,25.33,64.08,41.73,79.18,30.48C154.76,200.8,163.83,189.3,175,194.81Z"/></g><g class="cls-4"><path class="cls-5" d="M129.91,184.3c-4.36-3.13-8.87-6-13.44-8.71s-9.21-5.34-13.88-7.9-9.41-5-14.22-7.25S78.71,155.93,73.7,154a2,2,0,0,0-1.89,3.53c4.36,3.12,8.87,5.95,13.45,8.68s9.22,5.33,13.89,7.87,9.43,4.93,14.24,7.21,9.67,4.5,14.68,6.41a2,2,0,0,0,1.84-3.42Z"/><path class="cls-5" d="M223.17,187.72c5-1.91,9.87-4.11,14.68-6.41s9.53-4.73,14.24-7.21,9.33-5.12,13.89-7.87,9.09-5.56,13.45-8.68a2,2,0,0,0-1.9-3.53c-5,1.91-9.86,4.11-14.66,6.42s-9.53,4.75-14.23,7.25-9.31,5.14-13.87,7.9-9.08,5.58-13.44,8.71a2,2,0,0,0,1.84,3.42Z"/></g><path class="cls-6" d="M142.69,269.07c-1.59-4.84-8-7.87-12.88-7.34s-6.72,5.53-1.64,9.79C135.12,277.34,144.75,275.34,142.69,269.07Z"/><path class="cls-6" d="M87.4,244.71c4.64-2.09,11.23.62,14.11,4.55s.45,8.7-6.11,7.82C86.4,255.88,81.38,247.42,87.4,244.71Z"/><path class="cls-5" d="M111.84,245.24a3.53,3.53,0,0,0-4.15,2c-3.9,8.26,7.31,16.56,14.84,13.07,2.69-1.25,6.78-5.31,4-8.34C125,250.4,118.47,246.46,111.84,245.24Z"/><path class="cls-7" d="M34.2,174.54a1.84,1.84,0,0,0,.87,1.17l29,16.63.16,64.21a1.85,1.85,0,0,0,.91,1.56l110.3,64.1a1.89,1.89,0,0,0,.91.25,1.78,1.78,0,0,0,.91-.25L287.42,258.6a1.81,1.81,0,0,0,.91-1.58l-.17-65.24,28-16.07a2,2,0,0,0,.87-1.17,1.79,1.79,0,0,0-.27-1.42c-29.69-44-28.8-43.09-29.36-43.45-7.5-4.74-84.63-49.39-107.82-62.86a7.4,7.4,0,0,0-7.42,0C78.38,121,66.33,127.83,64.65,128.92a2.91,2.91,0,0,0-1,.77c-1.2,1.52-5.72,8.58-29.23,43.43A1.79,1.79,0,0,0,34.2,174.54Zm248.35-43.69L176,192.36l-106.68-62L174,70C177.61,67.86,173.79,68.49,282.55,130.85Zm5.6,56.75-3.64,2.09-77.95,44.75L178.63,195l105.73-61v0l1.26-.71c37.05,55.15,24.27,36.13,27,40.24ZM284.67,256,178.14,317.5l-.29-117.28,26.71,37.67a1.81,1.81,0,0,0,1.47.77c.95,0-4.4,2.7,78.48-44.77Zm-217-61.55,76.63,44a1.8,1.8,0,0,0,.89.24c1.81,0,.3.39,29-39.59l.07,26.4.24,92-106.66-62ZM38.56,173.52,66,132.67l106.79,62.06-28.15,39.71-77-44.2L64,188.14Z"/><path class="cls-7" d="M138.67,260.81c-4.94,1.1-8.8-4.67-5.11-8.3a5.52,5.52,0,0,1,7.17-.54C144.13,254.51,142.63,259.92,138.67,260.81Z"/><path class="cls-7" d="M96.23,242.12c-2-3.53,1-8.29,5.13-7.49a5.51,5.51,0,0,1,4.44,5.64C105.61,245.45,98.74,246.5,96.23,242.12Z"/><path class="cls-5" d="M124.94,108.18c4.54,4.63,9.6,7.48,15,9.93,8,3.66,17.42,5.3,20.28,12.51l14.35-7.52,14.36-7.52a12.68,12.68,0,0,1-1.91-8,35,35,0,0,1,.86-5.71c.71-3.26,1.68-6.66,2.29-10,1-5.81,1.56-11.59.32-18-5-25.87-32-45.07-58.21-31.36a39.59,39.59,0,0,0-9,6.38c-.74.7-1.44,1.42-2.09,2.16C106.76,67.05,109.65,92.58,124.94,108.18Z"/><path class="cls-8" d="M131.84,98.26c5.88,8.5,14.37,7.79,19.17,12.93,3.4,3.58,7.4,10.49,10.18,15.84l3.09-1.62c-11.85-23.58-15.95-19.25-24.24-24.58-9.16-5.84-7.36-13.57-1.11-16.28-3.51,11,7.79,21.19,14,12.79,4.38-5.9.29-14-6.05-16.66a31.28,31.28,0,0,1,8.56-4.49c-2.49,11.11,9.07,18,15,12.58,4.35-3.87,1.64-14.2-7.47-16.89,4.2-2.69,9.75-1.87,12,3.4,3.2,8-1.93,14.06-.27,22.4,1.16,5.26,4.69,12.64,7.71,18.2l2.82-1.47c-2.8-5.35-6.19-12.58-7.2-17.42-1.49-6.87,3.92-13.46.32-23.09-3.58-9-14.91-9.44-20.53-2.57a20.75,20.75,0,0,0-8.61,2.6c-1.35.84-4.66,2.08-7.7,5.9C132.5,80.5,126.5,90.23,131.84,98.26Zm27.91-22.53c7.46.59,9.95,8.24,7.88,10-.95,1-3.2,1.11-4.79.2C160.15,84.46,158.1,79.75,159.75,75.73ZM144,84a8.68,8.68,0,0,1,6.14,5.51c1.33,3.33-.63,6.24-2.44,6.53C145.17,96.77,140.37,90.41,144,84Z"/><path class="cls-8" d="M181.33,159.8l1.22-.64,16.39-8.59,1.22-.64a4,4,0,0,0,1.7-5.42l-3.21-6.12,0,0L172.73,152h0l3.2,6.12A4,4,0,0,0,181.33,159.8Z"/><polygon class="cls-8" points="159.63 137.9 164.12 146.45 168.61 144.09 194.47 130.52 198.98 128.18 194.5 119.63 159.63 137.9"/><g class="cls-9"><path class="cls-7" d="M124.94,108.18c4.54,4.63,9.6,7.48,15,9.93,8,3.66,17.42,5.3,20.28,12.51l14.35-7.52,14.36-7.52a12.68,12.68,0,0,1-1.91-8,48,48,0,0,1-47.46-10.27C122,81.38,123.31,61,121.18,51,106.76,67.05,109.65,92.58,124.94,108.18Z"/><path class="cls-7" d="M176.52,60.65c-3.65-6.76-10.31-12.5-20.56-14.79-5.69-.6-8.73-.66-15.35,1.87a1.28,1.28,0,0,0,.61,2.46c9.44-1.09,16.84-.93,26.23,5.69,7.1,5.13,7.27,7.71,8.82,6.27A1.24,1.24,0,0,0,176.52,60.65Z"/></g><path class="cls-10" d="M183.44,158.69,198.05,151a8.27,8.27,0,0,0-14.61,7.66Z"/><path class="cls-10" d="M157.84,134.5l1.79,3.4,34.87-18.27-1.8-3.42a5.07,5.07,0,0,0-6.83-2.13l-.62.33-2.82,1.47-18.15,9.53L161.19,127l-1.22.64A5.07,5.07,0,0,0,157.84,134.5Z"/><path class="cls-10" d="M172.71,152h0l25.9-13.58,0,0a5.08,5.08,0,0,0,2.12-6.82l-1.8-3.4-4.5,2.35-25.85,13.57-4.5,2.36,1.78,3.4A5,5,0,0,0,172.71,152Z"/><path class="cls-7" d="M123.64,109.45c11.79,12,27.11,12.67,33,18.91a6.87,6.87,0,0,0-.36,7c7.68,13.53,8.3,20.46,15.58,18.88,1.62,2.3,2.5,7.85,7.66,7.85,2.53,0,2.24-.67,21.54-10.54a5.82,5.82,0,0,0,2.44-7.87L201,138.91a6.91,6.91,0,0,0,1.4-8.17c-7.37-12.47-7.4-18.18-13.21-19-2.24-8.41,6.36-21.3,3.07-38.3C185.63,39.23,146.75,23.84,122,47.53,104.72,63.86,106.69,92.16,123.64,109.45Zm51.52,43.31,22.73-11.91c3.06,8.21,8.47,3.77-17.39,17.33a2.21,2.21,0,0,1-3-.92Zm-15-23c.51-.47-.62.25,26.55-14,4.5-2.36,5,3.85,12.44,16.73a3.27,3.27,0,0,1-1.36,4.36l-25.89,13.58c-4.53,1.36-3.54-.42-12.45-16.7h0A3.26,3.26,0,0,1,160.17,129.72ZM124.52,50.16c22.71-21.74,58.1-7.38,64.15,24,3.16,16.33-5.41,28.22-3.14,38.08-.39.16-7.31,3.81-26.2,13.7-6.87-7.42-21.64-7.35-33.1-19h0C110.8,91.16,108.63,65.17,124.52,50.16Z"/><path class="cls-8" d="M12,168.57c-1.36.65-2.34,1.06-3.26,1.57a7.24,7.24,0,0,0-3.86,7.93,18.23,18.23,0,0,0,3.33,7.52,28.53,28.53,0,0,1,1.91,3c1.46,3,.21,5.83-3,6.86a15.44,15.44,0,0,1-4.69.53c-2,0-2.24.48-2.46,1.4-.26,1.11.54,2.12,2.07,2.42,3.45.68,6.9.65,9.77-1.69,4.24-3.46,4.87-8.89,1.63-13.46a27.34,27.34,0,0,1-3.32-5.82c-1-2.52-.55-3.54,1.87-4.78,1.17-.6,2.42-1,3.61-1.61a10.35,10.35,0,0,0,4.93-4.4,7.8,7.8,0,0,0-.74-8.92A28.32,28.32,0,0,1,16.26,153c-1.09-2.55-.71-3.51,2-4.49A44.14,44.14,0,0,1,23.54,147a3.89,3.89,0,0,0,2.51-1.75,1.71,1.71,0,0,0-.8-2.6,4.79,4.79,0,0,0-2.71-.37A27.12,27.12,0,0,0,15,144.45c-4,2.06-5.22,5.4-3.73,9.59a28.45,28.45,0,0,0,3.3,6.27c.21.33.51.6.74.92,2.36,3.3,1.91,4.94-1.84,6.74C12.85,168.26,12.23,168.49,12,168.57Z"/><path class="cls-8" d="M334.12,207.27c-1.38.61-2.37,1-3.3,1.48a7.22,7.22,0,0,0-4.08,7.82,18.2,18.2,0,0,0,3.12,7.61,29.28,29.28,0,0,1,1.82,3c1.38,3,.05,5.84-3.14,6.78a15.55,15.55,0,0,1-4.71.4c-2.05,0-2.25.42-2.5,1.34-.29,1.09.48,2.12,2,2.47,3.43.78,6.88.84,9.8-1.42,4.34-3.34,5.13-8.75,2-13.41a26.22,26.22,0,0,1-3.16-5.9c-.89-2.55-.45-3.56,2-4.74,1.19-.56,2.45-1,3.66-1.51A10.28,10.28,0,0,0,342.7,207a7.8,7.8,0,0,0-.49-8.93,28.53,28.53,0,0,1-3.44-6.2c-1-2.59-.62-3.54,2.08-4.44a46.69,46.69,0,0,1,5.36-1.35,3.88,3.88,0,0,0,2.56-1.67,1.71,1.71,0,0,0-.72-2.63,4.88,4.88,0,0,0-2.7-.44,27.1,27.1,0,0,0-7.63,1.94c-4,1.94-5.37,5.25-4,9.48a29.33,29.33,0,0,0,3.12,6.36c.21.34.5.62.72.94,2.27,3.36,1.77,5-2,6.69C334.94,207,334.31,207.2,334.12,207.27Z"/><path class="cls-8" d="M242.25,43.6c.17,1.5.24,2.55.42,3.59a7.22,7.22,0,0,0,6.24,6.23,18.18,18.18,0,0,0,8.19-.68,26.47,26.47,0,0,1,3.44-.83c3.29-.42,5.59,1.7,5.53,5a15.57,15.57,0,0,1-1,4.61c-.66,1.94-.28,2.27.52,2.78,1,.61,2.17.18,3-1.17,1.77-3,2.86-6.31,1.59-9.78-1.89-5.14-6.81-7.51-12.19-5.94a26.55,26.55,0,0,1-6.58,1.24c-2.7.08-3.53-.64-3.92-3.32-.18-1.31-.19-2.63-.34-3.94a10.35,10.35,0,0,0-2.55-6.1,7.79,7.79,0,0,0-8.67-2.21,28.53,28.53,0,0,1-7,1.42c-2.77.19-3.55-.48-3.61-3.32a44.44,44.44,0,0,1,.33-5.52,3.88,3.88,0,0,0-.84-2.94,1.7,1.7,0,0,0-2.71-.1,5,5,0,0,0-1.24,2.45,26.93,26.93,0,0,0-.43,7.86c.64,4.42,3.4,6.69,7.84,6.65a28.59,28.59,0,0,0,7-1.07c.38-.09.73-.29,1.11-.4,3.89-1.15,5.29-.2,5.77,3.94C242.22,42.73,242.24,43.39,242.25,43.6Z"/><path class="cls-8" d="M85.44,304.87c0-1.51.06-2.57,0-3.62A7.24,7.24,0,0,0,80,294.33a18.12,18.12,0,0,0-8.22-.26,27.93,27.93,0,0,1-3.52.42c-3.31,0-5.34-2.34-4.9-5.64a15.78,15.78,0,0,1,1.56-4.46c.88-1.85.54-2.22-.19-2.82s-2.14-.44-3.08.82c-2.11,2.81-3.58,5.93-2.72,9.52,1.28,5.33,5.9,8.26,11.42,7.32a26.82,26.82,0,0,1,6.68-.46c2.69.22,3.43,1,3.5,3.75,0,1.32-.1,2.64-.11,4a10.34,10.34,0,0,0,1.82,6.35A7.81,7.81,0,0,0,90.57,316a28,28,0,0,1,7.06-.6c2.78.13,3.48.88,3.2,3.71a45.89,45.89,0,0,1-1,5.44,3.84,3.84,0,0,0,.48,3A1.71,1.71,0,0,0,103,328a4.93,4.93,0,0,0,1.51-2.29A27,27,0,0,0,105.9,318c-.13-4.46-2.6-7-7-7.52a29.42,29.42,0,0,0-7.08.25c-.39.05-.77.21-1.16.27-4,.69-5.27-.42-5.27-4.58C85.37,305.73,85.43,305.07,85.44,304.87Z"/><path class="cls-8" d="M239.34,324.67c1.49.25,2.52.48,3.57.59a7.24,7.24,0,0,0,7.71-4.29,18.34,18.34,0,0,0,1.59-8.07,27.64,27.64,0,0,1,.14-3.53,4.65,4.65,0,0,1,6.36-3.93,15.36,15.36,0,0,1,4.15,2.26c1.69,1.16,2.11.89,2.82.26s.77-2-.31-3.17c-2.44-2.54-5.29-4.49-9-4.22-5.46.41-9.09,4.49-9.06,10.09a26.58,26.58,0,0,1-.62,6.67c-.66,2.62-1.58,3.22-4.27,2.85-1.3-.18-2.58-.53-3.88-.75a10.28,10.28,0,0,0-6.56.78,7.79,7.79,0,0,0-4.51,7.72A28.43,28.43,0,0,1,227,335c-.57,2.71-1.43,3.28-4.18,2.56a46,46,0,0,1-5.21-1.83,3.87,3.87,0,0,0-3.06,0,1.7,1.7,0,0,0-.84,2.59,5,5,0,0,0,2,1.86,27.24,27.24,0,0,0,7.44,2.57c4.42.6,7.37-1.43,8.55-5.71a29.33,29.33,0,0,0,.9-7c0-.39-.08-.79-.09-1.18,0-4.05,1.27-5.14,5.38-4.47C238.5,324.47,239.14,324.63,239.34,324.67Z"/><path class="cls-8" d="M128.34,142.15c0-1.5,0-2.56-.06-3.61a7.26,7.26,0,0,0-5.61-6.81,18.3,18.3,0,0,0-8.23-.1,30,30,0,0,1-3.51.5c-3.31.09-5.39-2.24-5-5.55a15.67,15.67,0,0,1,1.47-4.49c.84-1.87.5-2.23-.25-2.82-.9-.69-2.15-.39-3.06.89-2.06,2.85-3.46,6-2.52,9.58,1.38,5.29,6,8.13,11.56,7.08a26.78,26.78,0,0,1,6.67-.6c2.69.18,3.45,1,3.57,3.69.06,1.31,0,2.63,0,4a10.33,10.33,0,0,0,2,6.31,7.78,7.78,0,0,0,8.41,3,28.54,28.54,0,0,1,7.06-.75c2.77.08,3.49.82,3.27,3.65a45.57,45.57,0,0,1-.85,5.46,3.84,3.84,0,0,0,.55,3,1.7,1.7,0,0,0,2.69.36,5,5,0,0,0,1.47-2.31,27.44,27.44,0,0,0,1.19-7.78c-.22-4.47-2.75-7-7.17-7.39a29.42,29.42,0,0,0-7.08.4c-.39.06-.76.22-1.15.29-4,.77-5.28-.31-5.36-4.47C128.29,143,128.34,142.36,128.34,142.15Z"/><path class="cls-8" d="M89.66,32.34c-1.5,0-2.56-.05-3.61,0a7.24,7.24,0,0,0-6.89,5.51A18.3,18.3,0,0,0,79,46.1a28.08,28.08,0,0,1,.45,3.51c0,3.31-2.31,5.36-5.61,4.94A15.67,15.67,0,0,1,69.32,53c-1.86-.86-2.23-.53-2.82.21-.71.89-.42,2.14.84,3.07,2.82,2.1,6,3.54,9.54,2.66,5.31-1.32,8.22-6,7.25-11.47a25.83,25.83,0,0,1-.51-6.67c.21-2.7,1-3.44,3.73-3.53,1.31,0,2.63.09,4,.09a10.35,10.35,0,0,0,6.34-1.87,7.79,7.79,0,0,0,3.15-8.37,28.45,28.45,0,0,1-.65-7.06c.12-2.78.86-3.48,3.7-3.23a47.92,47.92,0,0,1,5.44.93,3.85,3.85,0,0,0,3-.5,1.72,1.72,0,0,0,.4-2.7,5,5,0,0,0-2.3-1.49,27.37,27.37,0,0,0-7.76-1.3c-4.47.16-7,2.65-7.48,7.07a29.43,29.43,0,0,0,.29,7.08c.06.39.21.77.28,1.15.72,4-.38,5.28-4.54,5.31C90.53,32.4,89.87,32.35,89.66,32.34Z"/><circle class="cls-6" cx="231.69" cy="129.52" r="8.11"/><path class="cls-6" d="M166.23,8.11A8.11,8.11,0,1,1,158.12,0,8.11,8.11,0,0,1,166.23,8.11Z"/><path class="cls-6" d="M320.25,281.18a8.11,8.11,0,1,1-8.11-8.11A8.12,8.12,0,0,1,320.25,281.18Z"/><path class="cls-6" d="M32.56,243.14A8.11,8.11,0,1,1,24.45,235,8.11,8.11,0,0,1,32.56,243.14Z"/><path class="cls-6" d="M304,82.85a8.12,8.12,0,1,1-8.11-8.11A8.12,8.12,0,0,1,304,82.85Z"/><path class="cls-11" d="M33.93,103.49l5.82-2.28a1.21,1.21,0,0,1,1.12.13l5.18,3.5a1.21,1.21,0,0,0,1.89-1.07l-.37-6.24a1.21,1.21,0,0,1,.47-1L53,92.66a1.21,1.21,0,0,0-.44-2.13L46.48,89a1.24,1.24,0,0,1-.83-.76l-2.13-5.88a1.21,1.21,0,0,0-2.16-.24L38,87.33a1.2,1.2,0,0,1-1,.56l-6.25.21a1.22,1.22,0,0,0-.9,2l4,4.83A1.23,1.23,0,0,1,34.06,96l-1.74,6A1.21,1.21,0,0,0,33.93,103.49Z"/><path class="cls-11" d="M330.85,138.38l5.82-2.28a1.21,1.21,0,0,1,1.12.12l5.18,3.51a1.21,1.21,0,0,0,1.89-1.08l-.37-6.24a1.22,1.22,0,0,1,.47-1l4.93-3.84a1.21,1.21,0,0,0-.44-2.13l-6.05-1.58a1.21,1.21,0,0,1-.83-.76l-2.13-5.87a1.21,1.21,0,0,0-2.16-.25l-3.37,5.27a1.23,1.23,0,0,1-1,.56l-6.25.2a1.22,1.22,0,0,0-.9,2l4,4.83a1.22,1.22,0,0,1,.23,1.1l-1.74,6A1.22,1.22,0,0,0,330.85,138.38Z"/><path class="cls-11" d="M164.4,361.94l4.5-3.19a1.06,1.06,0,0,1,1-.14l5.19,1.9a1.07,1.07,0,0,0,1.39-1.32l-1.65-5.28a1.08,1.08,0,0,1,.18-1l3.41-4.34a1.08,1.08,0,0,0-.83-1.74l-5.52-.06a1.06,1.06,0,0,1-.88-.47l-3.08-4.59a1.08,1.08,0,0,0-1.91.26l-1.76,5.23a1.06,1.06,0,0,1-.72.69l-5.32,1.51a1.07,1.07,0,0,0-.34,1.89l4.43,3.3a1.09,1.09,0,0,1,.43.9l-.2,5.52A1.07,1.07,0,0,0,164.4,361.94Z"/></g></g></svg>