<?xml version="1.0" standalone="no"?><!DOCTYPE svg PUBLIC "-//W3C//DTD SVG 1.1//EN" "http://www.w3.org/Graphics/SVG/1.1/DTD/svg11.dtd"><svg t="1620441542097" class="icon" viewBox="0 0 1024 1024" version="1.1" xmlns="http://www.w3.org/2000/svg" p-id="2247" xmlns:xlink="http://www.w3.org/1999/xlink" width="128" height="128"><defs><style type="text/css"></style></defs><path d="M204 411.3c3-3.6 9.5-10.3 19.3-19.2 16.7-15.2 36.5-30.4 59.4-44.6 65.4-40.7 141.7-65 228.4-65 86.7 0 163.1 24.4 228.5 65 22.9 14.2 42.7 29.4 59.4 44.6 9.8 9 16.3 15.7 19.3 19.2 8.2 9.7 22.8 11 32.7 2.9 9.8-8.1 11.2-22.5 3-32.2-4.2-5-12.1-13.3-23.5-23.6-18.7-17-40.7-33.9-66.1-49.7-72.4-45-157.2-72.1-253.2-72.1-96.1 0-180.8 27.1-253.2 72.1-25.4 15.8-47.5 32.7-66.1 49.7-11.4 10.3-19.3 18.6-23.5 23.6-8.2 9.7-6.9 24.1 3 32.2 9.8 8.2 24.4 6.8 32.6-2.9z m0 0" fill="#616161" p-id="2248"></path><path d="M371.9 511c0 75.7 62.4 137.1 139.3 137.1S650.5 586.7 650.5 511s-62.4-137.1-139.3-137.1S371.9 435.2 371.9 511z m232.2 0c0 50.5-41.6 91.4-92.9 91.4-51.3 0-92.9-40.9-92.9-91.4 0-50.5 41.6-91.4 92.9-91.4 51.3 0 92.9 40.9 92.9 91.4z m0 0" fill="#616161" p-id="2249"></path><path d="M818.4 614.4c-3 3.6-9.5 10.3-19.3 19.2-16.7 15.2-36.5 30.4-59.4 44.6-65.4 40.7-141.7 65-228.5 65-86.7 0-163.1-24.4-228.4-65-22.9-14.2-42.8-29.4-59.4-44.6-9.8-8.9-16.3-15.7-19.3-19.2-8.2-9.7-22.8-11-32.7-2.9-9.8 8.1-11.2 22.5-3 32.2 4.3 5 12.1 13.3 23.5 23.6 18.7 17 40.7 33.9 66.1 49.7 72.4 45 157.2 72.1 253.2 72.1 96.1 0 180.8-27 253.3-72.1 25.4-15.8 47.4-32.7 66.1-49.7 11.4-10.3 19.2-18.6 23.5-23.6 8.2-9.7 6.9-24.1-3-32.2-9.8-8.1-24.5-6.8-32.7 2.9z m0 0" fill="#616161" p-id="2250"></path></svg>