<?xml version="1.0" standalone="no"?><!DOCTYPE svg PUBLIC "-//W3C//DTD SVG 1.1//EN" "http://www.w3.org/Graphics/SVG/1.1/DTD/svg11.dtd"><svg t="1528425844453" class="icon" style="" viewBox="0 0 1025 1024" version="1.1" xmlns="http://www.w3.org/2000/svg" p-id="1974" xmlns:xlink="http://www.w3.org/1999/xlink" width="200.1953125" height="200"><defs><style type="text/css"></style></defs><path d="M663.629529 383.621103c38.266324 42.955338 119.79704 136.867629 148.684313 180.822786 87.660614 133.554005 88.348309 192.578068 81.033365 215.836887-17.007142 53.583906-68.278265 93.163195-127.676876 98.539904-138.681015 12.380552-228.590964 17.007142-254.726434 17.007142-24.071363 0-113.982335-4.626589-252.475053-17.007142-59.524484-5.376709-110.794583-44.955998-127.800702-98.539904-7.377368-23.259842-6.628272-82.282882 80.907492-215.774462 29.198373-44.330728 111.919251-139.557007 148.809162-180.886234L663.629529 383.620079M677.884869 319.594879l-331.819881 0c0 0-15.694177 1.562664-24.88493 11.754259-25.697475 28.511702-127.050582 143.182755-163.064501 197.954776-59.961456 91.475682-112.106525 195.579569-88.473158 270.23436 23.63439 74.71824 94.475137 135.055267 183.073144 143.057906 133.677831 11.942556 229.02896 17.25684 258.227333 17.25684 0.375571 0 0.750119 0 1.001865 0 0.374548 0 0.687695 0 1.000841 0 29.261821 0 124.673328-5.314284 258.352182-17.25684 88.598007-8.002638 159.439777-68.339666 183.073144-143.057906 23.635414-74.654791-28.509655-178.759701-88.534559-270.23436-36.014943-54.770998-137.430475-169.443075-163.002077-197.954776C693.64147 321.158566 677.884869 319.594879 677.884869 319.594879L677.884869 319.594879z" p-id="1975" fill="#efb336"></path><path d="M511.944739 447.646303l-51.957795 105.418898-116.297165 16.881269 84.096267 81.970758-19.88277 115.859169 104.041462-54.646149 104.040439 54.646149-19.881746-115.859169 84.220093-81.970758-116.358566-16.881269L511.944739 447.646303 511.944739 447.646303z" p-id="1976" fill="#efb336"></path><path d="M644.059906 191.543456c-14.006664 0-253.976315 0-265.042879 0-11.066564 0-16.257022-10.004321-16.257022-10.004321s-15.068907-37.265483-15.068907-45.143272c0-7.878812 9.316627-8.87863 9.316627-8.87863l154.999438 0c0 0 137.116305 0 152.122787 0 14.944057 0 11.754259 10.25402 11.754259 10.25402l-14.630911 43.955156C661.253298 181.726408 658.064523 191.543456 644.059906 191.543456zM748.101368 63.492032c-17.006118 0-236.094205 0-236.094205 0s-225.090065 0-240.095524 0-10.316445 17.069566-10.316445 17.069566l52.958636 158.876932c0 0 11.442135 16.131149 24.446934 16.131149 12.942374 0 327.004995 0 345.012978 0 18.069384 0 26.26032-18.569805 26.26032-18.569805l53.833605-161.502861C764.107668 75.497013 765.107486 63.492032 748.101368 63.492032z" p-id="1977" fill="#efb336"></path></svg>