<?xml version="1.0" standalone="no"?><!DOCTYPE svg PUBLIC "-//W3C//DTD SVG 1.1//EN" "http://www.w3.org/Graphics/SVG/1.1/DTD/svg11.dtd"><svg t="1528425923759" class="icon" style="" viewBox="0 0 1025 1024" version="1.1" xmlns="http://www.w3.org/2000/svg" p-id="2345" xmlns:xlink="http://www.w3.org/1999/xlink" width="200.1953125" height="200"><defs><style type="text/css"></style></defs><path d="M480.104062 608.219957c0 17.633435-14.44466 32.011577-32.00953 32.011577l-224.093317 0c-17.569987 0-32.013623-14.378142-32.013623-32.011577L191.987592 416.13924c0-17.631388 14.443637-32.00953 32.013623-32.00953l224.093317 0c17.56487 0 32.00953 14.379165 32.00953 32.00953L480.104062 608.219957z" p-id="2346" fill="#efb336"></path><path d="M480.104062 928.351075c0 17.628318-14.44466 32.011577-32.00953 32.011577l-224.093317 0c-17.569987 0-32.013623-14.384282-32.013623-32.011577L191.987592 736.273428c0-17.631388 14.443637-32.014647 32.013623-32.014647l224.093317 0c17.56487 0 32.00953 14.383259 32.00953 32.014647L480.104062 928.351075z" p-id="2347" fill="#efb336"></path><path d="M832.24778 608.219957c0 17.633435-14.443637 32.011577-32.014647 32.011577l-224.089224 0c-17.568964 0-32.014647-14.378142-32.014647-32.011577L544.129263 416.13924c0-17.631388 14.445683-32.00953 32.014647-32.00953l224.089224 0c17.57101 0 32.014647 14.379165 32.014647 32.00953L832.24778 608.219957z" p-id="2348" fill="#efb336"></path><path d="M832.24778 928.351075c0 17.628318-14.443637 32.011577-32.014647 32.011577l-224.089224 0c-17.568964 0-32.014647-14.384282-32.014647-32.011577L544.129263 736.273428c0-17.631388 14.445683-32.014647 32.014647-32.014647l224.089224 0c17.57101 0 32.014647 14.383259 32.014647 32.014647L832.24778 928.351075z" p-id="2349" fill="#efb336"></path><path d="M512.115639 355.494183c-1.623041 0-3.310554-0.128943-4.936666-0.376595-360.896475-56.395063-372.524861-100.540563-377.531115-119.423515-5.373639-20.510087 1.56471-43.390264 20.573535-68.029589 36.951313-47.954429 121.235877-103.664867 174.380764-103.664867 1.126714 0 6.628272 0.247652 7.62809 0.371478 59.650356 6.009142 155.56433 154.690385 207.461747 242.850396 6.251677 10.630615 5.875083 24.014055-1.127738 34.262958C532.563301 350.302701 522.621405 355.494183 512.115639 355.494183zM194.050676 216.061002c32.014647 18.009006 142.308809 44.016558 253.728663 64.088648-52.395791-81.221662-104.167335-145.993912-123.36548-152.377602C288.71411 128.026863 208.554691 187.048879 194.050676 216.061002z" p-id="2350" fill="#efb336"></path><path d="M512.115639 355.494183c-10.501672 0-20.445615-5.190458-26.445547-14.008711-7.003844-10.249927-7.379415-23.633367-1.127738-34.262958 51.837039-88.158988 147.683471-236.841254 207.46277-242.850396 0.999818-0.123826 6.499329-0.371478 7.626044-0.371478 53.146933 0 137.304602 55.709415 174.32141 103.664867 19.006778 24.638302 25.884749 47.519503 20.50804 68.029589-4.940759 18.882952-16.633617 63.028452-377.405243 119.423515C515.433357 355.36524 513.742774 355.494183 512.115639 355.494183zM699.632192 128.026863c-19.133674 6.127851-70.778322 70.900101-123.176159 152.121763 112.795243-20.321789 224.468889-46.705935 254.791929-64.712895C819.180556 189.73621 736.272404 128.026863 699.632192 128.026863z" p-id="2351" fill="#efb336"></path></svg>