<?xml version="1.0" standalone="no"?><!DOCTYPE svg PUBLIC "-//W3C//DTD SVG 1.1//EN" "http://www.w3.org/Graphics/SVG/1.1/DTD/svg11.dtd"><svg t="1554430372345" class="icon" style="" viewBox="0 0 1024 1024" version="1.1" xmlns="http://www.w3.org/2000/svg" p-id="7571" xmlns:xlink="http://www.w3.org/1999/xlink" width="300" height="300"><defs><style type="text/css"></style></defs><path d="M568.137681 703.435206c0 28.840702 10.871674 43.260059 32.615023 43.26006 21.853686 0 32.78202-14.081388 32.782019-42.246152 0-28.161782-10.928334-42.246152-32.782019-42.246152-21.744343 0-32.615023 13.745407-32.615023 41.232244z" p-id="7572"></path><path d="M944.680116 583.604245l-0.001988-0.001988c-14.396495-14.402459-35.606051-19.534621-50.654627-19.53462h-27.189623V338.538792c0-2.465187-1.33299-4.227597-2.215686-5.393591l-0.158051-0.20974c0.239561-6.241496-1.514897-14.226516-5.485041-25.00177-2.920452-7.931342-6.230562-16.919335-13.460121-25.388446L626.028825 24.265196c-8.451218-9.914426-18.288111-14.344805-26.172734-17.89547l-2.955242-1.345913c-9.640075-4.452247-18.637014-5.023813-25.398387-5.023813-1.245516 0-2.407534 0.099403-3.531778 0.194829-0.815102 0.069582-1.585473 0.135188-2.338946 0.156063-0.865798 0.027833-1.663007 0.108349-2.432384 0.186877-0.756455 0.07654-1.470166 0.14811-2.084475 0.14811H142.890899c-27.196581 0-46.832593 6.965148-61.798665 21.922273-17.510781 17.52768-26.023629 36.397296-26.02363 57.684387v851.284809c0 23.475938 9.974068 48.040336 26.031582 64.108784 18.014753 18.000837 40.536425 28.324802 61.789719 28.324802h638.466589c28.073313 0 50.03336-17.75233 60.627701-28.33673 11.335885-11.337873 24.849683-31.661751 24.849683-64.095862v-82.892914h27.189623c19.112159 0 38.522526-7.538702 50.655621-19.673784 14.411405-14.410411 22.675746-31.782028 22.675747-47.659623V631.119735c0.000994-16.025705-8.052614-32.900309-22.674753-47.51549zM590.985393 56.820577l207.591626 244.257309H627.553662c-11.001892 0-20.390478-7.081449-26.330783-13.024737-9.239482-9.233518-10.237485-23.431207-10.237486-29.106107V56.820577zM808.475541 962.162568c-13.101277 13.094319-23.329816 14.507826-27.118053 14.507826H142.890899c-8.140088 0-18.754309-5.556611-27.697571-14.500868-7.98005-7.98005-11.615207-21.452099-11.615207-30.592178V80.291545c0-6.356803 0.896612-13.459127 11.609242-24.170763 5.596373-5.596373 14.140036-8.092375 27.703536-8.092375h400.749978v210.923605c0 24.496804 8.774277 47.318672 24.074342 62.612773 17.571417 17.571417 38.263085 26.858612 59.838443 26.858612h191.933711v215.642252H380.75065c-17.367642 0-32.198526 6.3906-45.335588 19.53462-11.679818 11.67286-17.356707 27.216462-17.356708 47.518472v150.231291c0 20.392466 5.676889 35.981793 17.355714 47.659624 13.236465 13.238453 28.066355 19.673784 45.336582 19.673784h438.736723l0.000994 82.892914c0 9.487989-3.860801 23.431207-11.012826 30.586214zM705.690157 736.049235c4.503937 5.296176 12.165898 7.942277 22.981906 7.942277h41.907189v21.123076h-43.091075c-4.16895 0-7.661961-0.110337-10.477046-0.337969-3.493011-0.225644-6.648053-0.731604-9.463138-1.520862-6.534734-1.463208-12.504861-4.3936-17.913362-8.787199-12.394524-9.912438-18.588307-25.855639-18.588307-47.822644 0-41.908183 19.037607-62.862274 57.116797-62.862274h42.415137v20.785107h-41.907189c-19.829847 0-29.741291 14.363692-29.741291 43.092068 0.001988 13.517775 2.253459 22.979919 6.760379 28.38842z m-44.440964-31.600121c0 42.135815-20.167816 63.200243-60.496489 63.200243-40.331656 0-60.496489-21.461045-60.49649-64.384129 0-41.23125 20.164834-61.848366 60.49649-61.848367 40.327679 0.000994 60.496489 21.012739 60.496489 63.032253z m-130.79508 2.1968c0 21.967999-6.196765 37.9112-18.588307 47.822644-5.406513 4.3936-11.379622 7.323992-17.912368 8.787199-2.817073 0.789258-5.973109 1.296211-9.463138 1.520862-2.818067 0.227632-6.311078 0.337969-10.477046 0.337969h-56.271874v-121.330948h55.595936c38.077202 0 57.116797 20.954091 57.116797 62.862274z m326.646252 58.468674l-25.516676-42.246152-27.037537 42.246152h-30.248245l42.415137-60.665474-41.064254-60.665474h29.91127l25.008727 38.359506 24.840738-38.359506h29.403321l-39.035444 58.975628 41.907189 62.35532h-30.584226z" p-id="7573"></path><path d="M443.25905 664.906716v79.08579h29.572306c11.264315 0 19.036613-2.873732 23.319876-8.618215 4.280281-5.632158 6.421415-15.940219 6.421415-30.924183 0-14.870645-2.141134-25.178706-6.421415-30.924183-4.283263-5.744483-12.055561-8.618215-23.319876-8.618215h-29.572306z" p-id="7574"></path></svg>