<?xml version="1.0" standalone="no"?><!DOCTYPE svg PUBLIC "-//W3C//DTD SVG 1.1//EN" "http://www.w3.org/Graphics/SVG/1.1/DTD/svg11.dtd"><svg t="1554431113417" class="icon" style="" viewBox="0 0 1311 1024" version="1.1" xmlns="http://www.w3.org/2000/svg" p-id="3692" xmlns:xlink="http://www.w3.org/1999/xlink" width="384.08203125" height="300"><defs><style type="text/css"></style></defs><path d="M651.736999 546.163133h238.946433v68.271267h-238.947433V546.164133z m0-136.540533h238.946433v68.269266h-238.947433v-68.269266z m0 273.081066h238.946433v68.269267h-238.947433v-68.269267zM38.668585 288.032906v546.163133h546.231132V288.032906H38.669585zM386.096852 716.7723L311.81765 605.693494l-33.45164 50.041462h33.45264v61.033344H143.873454l121.930691-179.61807L157.800305 375.485966h90.185031L311.88665 469.494957l63.832314-94.007991h90.117032L357.695158 537.084231l122.000689 179.687069h-93.598995z m587.670688-535.24025L843.780936 51.476447C815.44824 23.211751 759.60384 0 719.528271 0H282.734963c-40.07557 0-72.775218 32.769648-72.775218 72.776218v146.918422h58.233374V72.776218c0-7.919915 6.759927-14.540844 14.609843-14.540844h436.795308c4.300954 0 9.2839 0.544994 14.539844 1.569984v231.367514h231.437514c1.023989 5.256944 1.569983 33.999635 1.569983 38.436587v621.601323c0 7.918915-6.758927 14.541844-14.609843 14.541844H282.734963c-7.918915 0-14.609843-6.757927-14.609843-14.541844v-48.812476h-58.235375v48.812476c0 40.07557 32.701649 72.777218 72.777219 72.777218h669.800804c40.07457 0 72.774218-32.701649 72.774219-72.777218V329.676459c0.069999-40.07457-23.141751-119.881712-51.474447-148.146409zM792.305489 233.007497V84.246095c3.959957 2.729971 7.372921 5.59794 10.171891 8.465909L932.463983 222.697608c2.866969 2.867969 5.734938 6.349932 8.532909 10.309889H792.305489z" p-id="3693"></path></svg>