<?xml version="1.0" standalone="no"?><!DOCTYPE svg PUBLIC "-//W3C//DTD SVG 1.1//EN" "http://www.w3.org/Graphics/SVG/1.1/DTD/svg11.dtd"><svg t="1554429804113" class="icon" style="" viewBox="0 0 1024 1024" version="1.1" xmlns="http://www.w3.org/2000/svg" p-id="3290" xmlns:xlink="http://www.w3.org/1999/xlink" width="300" height="300"><defs><style type="text/css"></style></defs><path d="M711.68 422.4H312.32c-20.48 0-38.4 17.92-38.4 38.4s17.92 38.4 38.4 38.4h399.36c20.48 0 38.4-17.92 38.4-38.4s-17.92-38.4-38.4-38.4zM711.68 573.44H312.32c-20.48 0-38.4 17.92-38.4 38.4s17.92 38.4 38.4 38.4h399.36c20.48 0 38.4-17.92 38.4-38.4s-17.92-38.4-38.4-38.4zM711.68 724.48H312.32c-20.48 0-38.4 17.92-38.4 38.4s17.92 38.4 38.4 38.4h399.36c20.48 0 38.4-17.92 38.4-38.4s-17.92-38.4-38.4-38.4z" fill="" p-id="3291"></path><path d="M880.64 299.52l-232.96-232.96c-7.68-10.24-23.04-15.36-38.4-15.36H238.08C176.64 51.2 125.44 102.4 125.44 163.84v696.32c0 61.44 51.2 112.64 112.64 112.64h547.84c61.44 0 112.64-51.2 112.64-112.64V340.48c0-15.36-5.12-30.72-17.92-40.96z m-230.4-122.88l120.32 120.32-81.92-2.56c-10.24 0-20.48-5.12-28.16-12.8-7.68-7.68-10.24-17.92-10.24-28.16v-76.8zM785.92 896H238.08c-20.48 0-35.84-15.36-35.84-35.84V163.84c0-20.48 15.36-35.84 35.84-35.84h335.36l-2.56 125.44c0 30.72 10.24 61.44 33.28 81.92 20.48 23.04 51.2 35.84 81.92 35.84l135.68 5.12v483.84c0 20.48-15.36 35.84-35.84 35.84z" fill="" p-id="3292"></path></svg>