<?xml version="1.0" standalone="no"?><!DOCTYPE svg PUBLIC "-//W3C//DTD SVG 1.1//EN" "http://www.w3.org/Graphics/SVG/1.1/DTD/svg11.dtd"><svg t="1556422930135" class="icon" style="" viewBox="0 0 1024 1024" version="1.1" xmlns="http://www.w3.org/2000/svg" p-id="5002" xmlns:xlink="http://www.w3.org/1999/xlink" width="300" height="300"><defs><style type="text/css"></style></defs><path d="M625.92 85.333333l248.746667 248.746667V938.666667h-725.333334V85.333333h476.586667m35.413333-85.333333h-512a85.333333 85.333333 0 0 0-85.333333 85.333333v853.333334a85.333333 85.333333 0 0 0 85.333333 85.333333h725.333334a85.333333 85.333333 0 0 0 85.333333-85.333333V298.666667l-298.666667-298.666667z" p-id="5003"></path><path d="M960 298.666667l-298.666667-298.666667h-42.666666v233.386667A107.946667 107.946667 0 0 0 725.333333 341.333333h234.666667z" p-id="5004"></path><path d="M704 163.413333L796.586667 256H725.333333a22.613333 22.613333 0 0 1-22.613333-22.613333V163.413333M661.333333 0h-42.666666v233.386667A107.946667 107.946667 0 0 0 725.333333 341.333333h234.666667V298.666667l-298.666667-298.666667zM617.813333 553.813333L469.333333 702.293333l-85.333333-85.333333L232.96 768H832l-214.186667-214.186667z" p-id="5005"></path><path d="M362.666667 469.333333m-85.333334 0a85.333333 85.333333 0 1 0 170.666667 0 85.333333 85.333333 0 1 0-170.666667 0Z" p-id="5006"></path></svg>