<?xml version="1.0" standalone="no"?><!DOCTYPE svg PUBLIC "-//W3C//DTD SVG 1.1//EN" "http://www.w3.org/Graphics/SVG/1.1/DTD/svg11.dtd"><svg t="1554283477287" class="icon" style="" viewBox="0 0 1024 1024" version="1.1" xmlns="http://www.w3.org/2000/svg" p-id="4095" xmlns:xlink="http://www.w3.org/1999/xlink" width="300" height="300"><defs><style type="text/css"></style></defs><path d="M412.701223 322.944671c5.864492 0 10.635605-1.192778 14.015143-3.578334 4.174723-2.783149 5.864492-6.361483 6.957872-12.921763 1.09338-6.56028-0.397593-11.43079-3.478936-15.108523-5.367501-6.361483-16.301301-9.442827-33.497185-9.442826-10.039216 0-22.066395 1.09338-35.98214 3.180741-37.870705-27.632693-48.406911-58.147932-48.406911-58.147932s6.460881-16.500097 6.858474-43.337605c0.298195-16.997088-2.385556-28.427878-9.144632-35.087555-2.683751-2.584353-7.05727-4.274122-11.331392-4.274122-3.28014 0-6.361483 0.993982-8.945836 2.783149-19.680839 14.412735 1.789167 82.202291 2.385557 84.090856-9.24403 22.86158-20.973015 47.015337-33.000194 68.286546-3.876529 6.957872-3.578334 6.361483-6.858475 12.02718 0 0-33.298389 15.605513-49.400893 34.789361-9.144632 10.834401-10.238012 18.189866-9.741021 23.756164v0.099398c0.795185 6.56028 9.144632 12.52417 17.692875 12.52417h1.09338c8.647641-0.496991 18.090468-6.659678 28.825471-18.686857 7.156669-7.951854 16.400699-21.966997 27.533295-41.647835 32.006212-9.144632 60.135896-15.605513 83.792661-19.283246 17.394681 9.442827 43.138808 19.979033 60.632887 19.979033z m-19.780237-23.557368c15.406717 0 23.756164 2.286158 28.030286 4.075326 1.292176 0.596389 2.286158 1.09338 2.981945 1.59037-1.192778 0.795185-3.578334 1.789167-7.852456 1.789168-7.156669 0-16.400699-2.484954-27.831489-7.355465 1.590371 0 3.081343-0.099398 4.671714-0.099399z m-181.202873 67.888954c0.596389-1.391574 1.292176-2.981945 2.087362-4.37352 1.888565-3.081343 7.05727-9.144632 19.979033-20.873616-8.846438 13.319355-15.406717 20.67482-22.066395 25.247136z m66.199185-62.322656c13.816346-23.656766 24.054358-48.406911 24.948942-50.792467 7.753058 12.623568 19.283246 26.241118 30.316443 35.982139-21.569404 4.671714-42.343623 10.33741-55.265385 14.810328zM620.145215 664.675597v76.735391h28.726072c10.933799 0 18.488061-2.783149 22.662784-8.349447 4.174723-5.4669 6.262085-15.506115 6.262085-30.018248 0-14.412735-2.087362-24.451951-6.262085-30.018249-4.174723-5.566298-11.728985-8.349447-22.662784-8.349447h-28.726072zM527.108523 665.172588h-28.726073v34.789361h30.217045c14.71093 0 22.165793-5.765094 22.165793-17.394681s-7.852456-17.394681-23.656765-17.39468z" p-id="4096"></path><path d="M944.680256 583.666084c-14.412735-14.412735-35.584547-19.58144-50.693069-19.58144H866.851485V338.550184c0-2.484954-1.292176-4.274122-2.18676-5.367501 0-0.099398-0.099398-0.099398-0.198796-0.198796 0.198796-6.262085-1.490973-14.213939-5.4669-25.048341-2.882547-7.951854-6.262085-16.89769-13.418753-25.346534L626.009707 24.352553c-8.448845-9.939818-18.289264-14.313337-26.14172-17.891672l-2.981945-1.391574c-9.641623-4.472918-18.587459-5.069307-25.445933-5.069307-1.292176 0-2.385556 0.099398-3.578335 0.198796-0.795185 0.099398-1.590371 0.099398-2.385556 0.198797-0.894584 0-1.689769 0.099398-2.385556 0.198796-0.795185 0.099398-1.490973 0.099398-2.087362 0.099398H142.934576c-27.2351 0-46.81654 6.957872-61.825665 21.966997-17.494079 17.494079-26.042322 36.379732-26.042322 57.650941v851.245972c0 23.457969 9.939818 48.009319 26.042322 64.111823 17.99107 17.99107 40.554455 28.32848 61.825665 28.32848H781.369055c28.030285 0 49.997282-17.792273 60.632886-28.32848 11.331392-11.331392 24.849544-31.708018 24.849544-64.111823v-82.898078h27.2351c19.08445 0 38.566492-7.554261 50.693069-19.680839 14.412735-14.412735 22.662784-31.807416 22.662784-47.611725V631.178412c-0.099398-16.003106-8.15065-32.900796-22.762182-47.512328z m-353.658707-526.810328l207.54339 244.221316H627.500679c-11.033197 0-20.376626-7.05727-26.340516-13.021161-9.24403-9.24403-10.238012-23.457969-10.238012-29.123665V56.855756z m217.483207 905.318579c-13.120559 13.120559-23.358571 14.512134-27.135701 14.512134H142.934576c-8.15065 0-18.786255-5.566298-27.732091-14.512134-7.951854-7.951854-11.629586-21.470006-11.629587-30.614638V80.313725c0-6.361483 0.894584-13.418754 11.629587-24.153756 5.566298-5.566298 14.114541-8.051252 27.732091-8.051252h400.773442v210.922927c0 24.451951 8.747039 47.313531 24.054358 62.620851 17.593477 17.593477 38.268297 26.837507 59.837702 26.837507h191.937876v215.594642H380.794409c-17.394681 0-32.205009 6.361483-45.325568 19.58144-11.728985 11.629586-17.394681 27.2351-17.394681 47.512328v150.190643c0 20.376626 5.665696 35.982139 17.394681 47.611725 13.219957 13.219957 28.030285 19.680839 45.325568 19.680839h438.743545v82.898078c-0.099398 9.542225-3.876529 23.457969-11.033198 30.614638z m8.150651-268.772665v20.376625h-70.870899v48.208115h-24.750146v-54.172005c0-6.56028 0.099398-11.927781 0.298195-16.201903 0.298195-5.268103 0.894584-9.741021 1.689769-13.61755 1.789167-8.548243 5.069307-15.307319 10.039215-20.376625 8.846438-8.945836 24.153757-13.418754 45.921957-13.418754h37.771307V664.675597h-39.858668c-20.376626 0-30.714036 9.542225-31.012231 28.726073h70.771501z m-111.922345 11.828382c0 21.370608-6.063289 36.777325-17.99107 46.418948-5.268103 4.274122-11.033197 7.156669-17.394681 8.548243-2.783149 0.795185-5.765094 1.292176-9.144632 1.490973-2.783149 0.198796-6.162687 0.298195-10.138614 0.298194H595.494467V644.199573h53.973209c36.777325 0 55.265385 20.277228 55.265386 61.030479zM578.298583 682.567268c0 14.015143-4.572316 24.253155-13.61755 30.714037-4.572316 3.180742-10.039216 5.268103-16.400699 6.361483-2.783149 0.397593-5.864492 0.795185-9.343429 0.993982-2.584353 0.099398-6.162687 0.198796-10.536206 0.198796h-30.018249v41.150844h-24.750146V644.199573h53.774413c16.798292 0 28.32848 1.987964 34.590565 5.864492 10.933799 6.858474 16.301301 17.692875 16.301301 32.503203z" p-id="4097"></path></svg>