<?xml version="1.0" standalone="no"?><!DOCTYPE svg PUBLIC "-//W3C//DTD SVG 1.1//EN" "http://www.w3.org/Graphics/SVG/1.1/DTD/svg11.dtd"><svg t="1620441606558" class="icon" viewBox="0 0 1024 1024" version="1.1" xmlns="http://www.w3.org/2000/svg" p-id="3219" xmlns:xlink="http://www.w3.org/1999/xlink" width="128" height="128"><defs><style type="text/css"></style></defs><path d="M321.163636 809.890909h-76.8c-23.272727 0-41.890909-18.618182-41.890909-41.890909V460.8c0-23.272727 18.618182-41.890909 41.890909-41.890909h76.8v390.981818z m-76.8-353.745454c-2.327273 0-6.981818 2.327273-6.981818 6.981818V768c0 2.327273 2.327273 6.981818 6.981818 6.981818h41.890909V456.145455h-41.890909zM709.818182 809.890909H349.090909V432.872727l121.018182-197.818182c6.981818-11.636364 20.945455-18.618182 34.909091-18.618181H581.818182c18.618182 0 34.909091 9.309091 46.545454 23.272727s13.963636 32.581818 9.309091 51.2l-39.563636 123.345454c0 2.327273 0 2.327273 2.327273 4.654546s2.327273 2.327273 4.654545 2.327273h151.272727c34.909091 0 65.163636 27.927273 65.163637 65.163636V698.181818c0 60.509091-51.2 111.709091-111.709091 111.709091z m-325.818182-34.909091h325.818182c41.890909 0 76.8-34.909091 76.8-76.8v-214.109091c0-16.290909-13.963636-30.254545-30.254546-30.254545H605.090909c-13.963636 0-25.6-6.981818-32.581818-16.290909-6.981818-9.309091-9.309091-23.272727-6.981818-34.909091L605.090909 279.272727c2.327273-6.981818 0-13.963636-4.654545-20.945454-4.654545-6.981818-11.636364-9.309091-18.618182-9.309091h-76.8c-2.327273 0-4.654545 0-4.654546 2.327273l-116.363636 190.836363v332.8z" fill="" p-id="3220"></path></svg>